<svg width="101" height="100" viewBox="0 0 101 100" fill="none" xmlns="http://www.w3.org/2000/svg">
<g clip-path="url(#clip0_3434_4)">
<path fill-rule="evenodd" clip-rule="evenodd" d="M15.6173 14.6173C19.6406 10.594 24.1845 7.40129 29.0342 5.03907C32.1377 3.52285 35.401 2.32812 38.7751 1.48369C38.8414 1.46727 38.9083 1.45505 38.9752 1.44696C46.8416 -0.482914 55.0887 -0.482319 62.9547 1.44874C63.0157 1.45691 63.0765 1.46851 63.1368 1.48358C65.7581 2.13961 68.313 3.00664 70.7781 4.07155C76.4206 6.50025 81.7036 10.0155 86.3054 14.6173C99.1126 27.4246 103.504 45.5083 99.479 61.9338C99.4708 62.0022 99.4583 62.0704 99.4414 62.1378C98.8133 64.642 97.993 67.0853 96.992 69.4475C94.5592 75.2143 90.997 80.6139 86.3054 85.3055C80.8733 90.7375 74.492 94.6556 67.6906 97.0596C66.2029 97.5872 64.6876 98.0449 63.1494 98.4298C63.1124 98.439 63.0752 98.4468 63.0379 98.4534C55.1597 100.402 46.8963 100.412 39.0139 98.4852C38.9337 98.4772 38.8537 98.4635 38.7743 98.4438C30.0248 96.2541 22.0195 91.7135 15.6161 85.3149V85.3054C14.9464 84.6357 14.297 83.9483 13.6685 83.2443C10.9043 80.151 8.59246 76.7937 6.73297 73.2588C4.88334 69.7504 3.45192 66.0212 2.48234 62.1471C2.46514 62.0776 2.45256 62.0076 2.44449 61.9375C0.518157 54.0785 0.518502 45.8399 2.44553 37.9811C2.45376 37.9123 2.46626 37.8437 2.48309 37.7757C3.51708 33.6442 5.07534 29.6776 7.10639 25.9676C8.84782 22.7815 10.9617 19.7464 13.4481 16.9268C14.1452 16.1358 14.8685 15.3655 15.6173 14.6173ZM37.5096 5.29698C35.2664 5.9687 33.0642 6.81242 30.9239 7.82816C27.6435 9.38854 24.5493 11.3316 21.708 13.6193C20.4196 14.6585 19.174 15.7763 17.9777 16.9729C12.3329 22.6177 8.43978 29.3605 6.2982 36.5197H15.067C16.7979 31.8785 19.3688 27.6957 22.7311 24.0446C23.0983 23.6451 23.4755 23.2516 23.8627 22.8644C24.6335 22.0934 25.4292 21.3622 26.2473 20.6707C29.6013 17.8322 33.375 15.6228 37.5096 14.0771V5.29698ZM14.0047 39.847H5.43504C3.96704 46.5046 3.9675 53.4235 5.43643 60.0806H14.0062C12.2069 53.4668 12.2062 46.4614 14.0047 39.847ZM40.8456 86.9163V95.4863C47.5027 96.9551 54.4212 96.9556 61.0781 95.4878V86.9154C54.4642 88.7145 47.4592 88.7146 40.8456 86.9163ZM76.7121 78.3401C77.1681 77.9258 77.6164 77.4986 78.0566 77.0584C78.3303 76.7847 78.599 76.5078 78.8627 76.2279C82.3852 72.4949 85.0663 68.1933 86.8527 63.4033H95.6279C94.8446 66.0209 93.827 68.5828 92.5754 71.0557C90.9717 74.2166 89.0085 77.1931 86.7197 79.9234C85.8487 80.9611 84.9254 81.9695 83.9498 82.9451C83.1256 83.7695 82.2779 84.5566 81.409 85.3063C78.5639 87.7577 75.4417 89.8508 72.1146 91.5442C69.6257 92.8081 67.0462 93.8344 64.4102 94.6233V85.8459C68.9777 84.1425 73.1048 81.6218 76.7121 78.3401ZM87.9159 60.0713C89.7128 53.4598 89.7121 46.4578 87.9144 39.8469H96.4932C97.9601 46.5011 97.9598 53.4168 96.4925 60.0713H87.9159ZM61.0703 13.0058C54.4577 11.2085 47.454 11.2086 40.8417 13.0068V4.43179C47.4971 2.96316 54.4142 2.96226 61.0703 4.42909V13.0058ZM80.9776 26.1371C80.0773 25.0045 79.1036 23.9114 78.0566 22.8644C77.384 22.1918 76.6923 21.5494 75.9834 20.9373C72.5515 17.9665 68.6712 15.6672 64.4071 14.077V5.29465C66.0633 5.79025 67.6973 6.3796 69.3005 7.0627C74.74 9.38755 79.7177 12.7465 83.9442 16.973C88.7025 21.7313 92.3614 27.4419 94.6859 33.6948C95.0309 34.6264 95.3452 35.567 95.6288 36.5148H86.8449C85.4336 32.7398 83.4691 29.2656 80.9776 26.1371ZM17.9777 82.9451C23.6196 88.587 30.3584 92.479 37.5136 94.6212V85.8504C32.3663 83.9308 27.7782 80.978 23.8632 77.063C19.9482 73.148 16.9954 68.5599 15.071 63.4126H6.30156C8.44385 70.5671 12.3359 77.3048 17.9777 82.9451ZM39.2382 58.0641C38.0296 58.0736 36.9442 57.3152 36.5318 56.1777L31.9391 43.5369C31.6452 43.6791 31.3324 43.7881 31.0148 43.8687C30.6404 43.9634 30.2612 44.0108 29.8773 44.0108C29.6545 44.0108 29.4365 44.0014 29.2232 43.9729C26.8296 43.6696 25.0143 41.6173 25.0001 39.2C24.9812 36.5268 27.1424 34.3371 29.8156 34.3181C32.4888 34.2992 34.6786 36.4605 34.6928 39.1337C34.6928 39.7498 34.5885 40.3423 34.3705 40.8969C34.252 41.2002 34.1051 41.4893 33.9345 41.7642L42.6698 45.9921L49.3528 36.3088C49.0732 36.1903 48.803 36.0434 48.547 35.868C48.0636 35.541 47.6417 35.1334 47.3005 34.6546C46.7222 33.8394 46.4094 32.8772 46.4047 31.8819C46.3857 29.2087 48.5472 27.019 51.2204 27C51.3389 27 51.462 27 51.5804 27.0095C53.974 27.1706 55.9078 29.0902 56.0832 31.4838C56.1638 32.6166 55.8652 33.702 55.2206 34.6262C54.8793 35.1097 54.4622 35.522 53.9835 35.849C53.7323 36.0244 53.4621 36.1714 53.1825 36.2898L59.984 45.8736L68.5771 41.5746C68.4159 41.2666 68.288 40.9442 68.1932 40.6077C68.0794 40.2001 68.0178 39.7735 68.0178 39.3422C68.0178 39.1479 68.0273 38.9536 68.0462 38.764C68.3211 36.3278 70.3781 34.4793 72.8286 34.4651C75.5018 34.4461 77.6916 36.6074 77.7058 39.2806C77.7247 41.8306 75.7435 43.9729 73.1983 44.1483L72.8949 44.1578C72.402 44.1578 71.9186 44.0914 71.4494 43.9492C71.146 43.8544 70.8521 43.7359 70.5772 43.5843L66.2641 55.9786C65.8707 57.1209 64.79 57.8887 63.5814 57.8982L39.2382 58.0594V58.0641ZM59.5899 42.1388C59.9596 42.6649 60.571 42.9729 61.2156 42.9729H61.2204C61.519 42.9729 61.8224 42.8971 62.0925 42.7644L64.3391 41.6411C65.2634 41.1766 65.6757 40.0627 65.2776 39.1053L64.2823 36.7212C63.9694 35.9771 63.2443 35.4984 62.4385 35.5032C62.0925 35.5079 61.7512 35.6027 61.4526 35.778L58.8126 37.3279C58.3339 37.6076 57.9927 38.0815 57.8789 38.6219C57.7651 39.1622 57.8789 39.731 58.2012 40.1812L59.5899 42.1388ZM41.4008 43.1055C41.1022 43.1055 40.7988 43.0392 40.5239 42.9065L38.3768 41.8685C37.4431 41.4135 37.0165 40.3091 37.4052 39.3469L38.3911 36.8918C38.6944 36.1429 39.4101 35.6547 40.2158 35.65C40.5618 35.65 40.9031 35.7353 41.2064 35.9106L43.7659 37.3705C44.2446 37.6406 44.5906 38.1099 44.7138 38.6502C44.8371 39.1905 44.7281 39.7593 44.4152 40.2143L43.0123 42.2476C42.6473 42.7785 42.0406 43.1008 41.396 43.1008L41.4008 43.1055ZM65.178 59.7218L37.6503 59.9044C36.4907 59.9121 35.5569 60.8583 35.5646 62.0179L35.5711 62.999C35.5788 64.1586 36.5251 65.0924 37.6847 65.0848L65.2123 64.9022C66.3719 64.8945 67.3058 63.9482 67.2981 62.7886L67.2916 61.8075C67.2839 60.6479 66.3376 59.7141 65.178 59.7218Z" fill="white"/>
</g>
<defs>
<clipPath id="clip0_3434_4">
<rect width="100" height="100" fill="white" transform="translate(0.5)"/>
</clipPath>
</defs>
</svg>
