<?xml version="1.0" standalone="no"?>
<!DOCTYPE svg PUBLIC "-//W3C//DTD SVG 20010904//EN"
 "http://www.w3.org/TR/2001/REC-SVG-20010904/DTD/svg10.dtd">
<svg version="1.0" xmlns="http://www.w3.org/2000/svg"
 width="212.000000pt" height="212.000000pt" viewBox="0 0 212.000000 212.000000"
 preserveAspectRatio="xMidYMid meet">
<metadata>
Created by potrace 1.14, written by Peter Selinger 2001-2017
</metadata>
<g transform="translate(0.000000,212.000000) scale(0.100000,-0.100000)"
fill="#000000" stroke="none">
<path d="M1015 1804 c-141 -51 -168 -234 -49 -333 l37 -30 -61 -90 c-34 -49
-91 -132 -127 -183 -36 -51 -66 -97 -68 -102 -3 -10 -25 0 -233 101 l-121 59
14 39 c25 69 5 154 -47 206 -59 59 -165 69 -237 22 -110 -71 -119 -227 -18
-310 30 -25 89 -48 115 -46 3 0 26 4 53 7 34 5 47 4 47 -5 0 -11 79 -235 100
-284 5 -11 25 -67 46 -124 37 -104 63 -140 107 -151 12 -4 139 -5 282 -4 143
2 363 3 490 4 126 1 242 4 257 7 51 10 73 46 128 206 28 83 55 161 60 172 4
11 21 57 36 103 20 58 33 81 42 77 73 -28 160 -10 214 45 l38 38 0 95 c0 93
-1 98 -30 131 -90 102 -257 77 -315 -47 -22 -48 -26 -93 -11 -148 7 -24 1 -28
-161 -111 l-168 -86 -27 36 c-15 21 -77 106 -137 191 l-110 154 38 27 c47 35
73 88 74 154 1 134 -129 225 -258 180z"/>
<path d="M1445 1440 c-38 -23 -76 -48 -82 -57 -24 -32 -15 -77 27 -133 46 -62
56 -70 88 -70 39 0 148 58 161 86 15 34 14 43 -11 105 -49 118 -79 129 -183
69z"/>
<path d="M595 1454 c-25 -19 -74 -142 -69 -174 6 -32 45 -64 111 -91 45 -18
55 -19 79 -7 37 17 104 114 104 149 0 46 -9 57 -85 99 -77 43 -108 48 -140 24z"/>
<path d="M583 500 c-96 -6 -119 -21 -127 -85 -5 -51 17 -101 52 -113 40 -13
1130 -4 1165 10 78 31 67 178 -15 193 -38 6 -954 2 -1075 -5z"/>
</g>
</svg>
