<svg width="64" height="32" viewBox="0 0 64 32" fill="none" xmlns="http://www.w3.org/2000/svg">
<g clip-path="url(#clip0_16926_610)">
<path fill-rule="evenodd" clip-rule="evenodd" d="M0 16C0 24.8202 7.17648 32 16 32C24.8202 32 32 24.8202 32 16C32 7.17982 24.8202 0 16 0C7.17984 0 0 7.17982 0 16ZM5.94191 4.96936C8.59784 2.54552 12.1292 1.06554 16 1.06554C19.8696 1.06554 23.4 2.54462 26.0557 4.96715L24.8681 6.1547C22.5199 4.03823 19.4105 2.75 16 2.75C12.5883 2.75 9.47794 4.03912 7.12944 6.15689L5.94191 4.96936ZM4.96751 5.94395C2.54476 8.59964 1.06554 12.1302 1.06554 16C1.06554 19.8694 2.54451 23.3997 4.96688 26.0553L6.15441 24.8678C4.03812 22.5196 2.75 19.4104 2.75 16C2.75 12.5893 4.03837 9.47974 6.15505 7.13149L4.96751 5.94395ZM5.94122 27.03C8.59723 29.4542 12.1289 30.9344 16 30.9344C19.8692 30.9344 23.3992 29.4557 26.0548 27.0337L24.8672 25.8461C22.5191 27.9621 19.4101 29.25 16 29.25C12.5879 29.25 9.47731 27.9606 7.12874 25.8425L5.94122 27.03ZM30.9345 16C30.9345 19.8714 29.454 23.4033 27.0295 26.0593L25.842 24.8718C27.9604 22.5232 29.25 19.4123 29.25 16C29.25 12.5881 27.9607 9.47761 25.8428 7.12907L27.0303 5.94154C29.4543 8.5975 30.9345 12.129 30.9345 16Z" fill="url(#paint0_linear_16926_610)"/>
</g>
<g clip-path="url(#clip1_16926_610)">
<path fill-rule="evenodd" clip-rule="evenodd" d="M32 16C32 24.8202 39.1765 32 48 32C56.8202 32 64 24.8202 64 16C64 7.17982 56.8202 0 48 0C39.1798 0 32 7.17982 32 16ZM37.9419 4.96936C40.5978 2.54552 44.1292 1.06554 48 1.06554C51.8696 1.06554 55.4 2.54462 58.0557 4.96715L56.8681 6.1547C54.5199 4.03823 51.4105 2.75 48 2.75C44.5883 2.75 41.4779 4.03912 39.1294 6.15689L37.9419 4.96936ZM36.9675 5.94395C34.5448 8.59964 33.0655 12.1302 33.0655 16C33.0655 19.8694 34.5445 23.3997 36.9669 26.0553L38.1544 24.8678C36.0381 22.5196 34.75 19.4104 34.75 16C34.75 12.5893 36.0384 9.47974 38.155 7.13149L36.9675 5.94395ZM37.9412 27.03C40.5972 29.4542 44.1289 30.9344 48 30.9344C51.8692 30.9344 55.3992 29.4557 58.0548 27.0337L56.8672 25.8461C54.5191 27.9621 51.4101 29.25 48 29.25C44.5879 29.25 41.4773 27.9606 39.1287 25.8425L37.9412 27.03ZM62.9345 16C62.9345 19.8714 61.454 23.4033 59.0295 26.0593L57.842 24.8718C59.9604 22.5232 61.25 19.4123 61.25 16C61.25 12.5881 59.9607 9.47761 57.8428 7.12907L59.0303 5.94154C61.4543 8.5975 62.9345 12.129 62.9345 16Z" fill="#478BF9"/>
</g>
<defs>
<linearGradient id="paint0_linear_16926_610" x1="32" y1="-1.90735e-06" x2="-5.64706" y2="9.41176" gradientUnits="userSpaceOnUse">
<stop stop-color="#478BF9"/>
<stop offset="1" stop-color="#9DADF2"/>
</linearGradient>
<clipPath id="clip0_16926_610">
<rect width="32" height="32" fill="white"/>
</clipPath>
<clipPath id="clip1_16926_610">
<rect width="32" height="32" fill="white" transform="translate(32)"/>
</clipPath>
</defs>
</svg>
