<svg width="14" height="12" viewBox="0 0 14 12" fill="none" xmlns="http://www.w3.org/2000/svg">
<path d="M12.3116 3.5386V3.91283C12.3116 7.68139 9.55848 12.0001 4.52064 12.0001C3.03341 12.0034 1.57777 11.5546 0.333252 10.709C0.549388 10.7394 0.767405 10.7532 0.985504 10.7501C2.2183 10.7536 3.41643 10.3266 4.38731 9.53759C3.81458 9.52883 3.25908 9.33282 2.79976 8.97741C2.34044 8.62201 2.00067 8.12531 1.82875 7.55789C1.99935 7.59545 2.17328 7.61426 2.34767 7.61402C2.59118 7.61408 2.8336 7.58009 3.06839 7.51298C2.44806 7.38456 1.88998 7.03625 1.48965 6.52766C1.08932 6.01907 0.871614 5.38181 0.873793 4.72493V4.6875C1.25332 4.90767 1.67883 5.02842 2.11343 5.03928C1.53491 4.64393 1.12359 4.03408 0.963511 3.33434C0.803435 2.63461 0.906688 1.8978 1.25217 1.27447C1.94055 2.15374 2.79941 2.87271 3.77291 3.38465C4.74641 3.89658 5.81275 4.19003 6.90262 4.2459C6.84867 4.0335 6.82321 3.81437 6.82695 3.59473C6.80665 3.01426 6.95913 2.4414 7.2636 1.95414C7.56807 1.46689 8.00975 1.08893 8.52849 0.871728C9.04724 0.654523 9.61783 0.608629 10.1626 0.740295C10.7074 0.871961 11.1998 1.17479 11.5729 1.60754C12.1861 1.47902 12.7744 1.24502 13.3134 0.915207C13.109 1.5856 12.6742 2.15442 12.0918 2.51319C12.6358 2.43535 13.1662 2.27654 13.6666 2.04166C13.3039 2.62009 12.8451 3.12696 12.3116 3.5386Z" fill="#110A1D"/>
</svg>
