<svg xmlns="http://www.w3.org/2000/svg">
    <symbol id="soc_bg" viewBox="0 0 32 32">
        <g>
            <path fill-rule="evenodd" clip-rule="evenodd" d="M0 16C0 24.8202 7.17648 32 16 32C24.8202 32 32 24.8202 32 16C32 7.17982 24.8202 0 16 0C7.17984 0 0 7.17982 0 16ZM5.94191 4.96936C8.59784 2.54552 12.1292 1.06554 16 1.06554C19.8696 1.06554 23.4 2.54462 26.0557 4.96715L24.8681 6.1547C22.5199 4.03823 19.4105 2.75 16 2.75C12.5883 2.75 9.47794 4.03912 7.12944 6.15689L5.94191 4.96936ZM4.96751 5.94395C2.54476 8.59964 1.06554 12.1302 1.06554 16C1.06554 19.8694 2.54451 23.3997 4.96688 26.0553L6.15441 24.8678C4.03812 22.5196 2.75 19.4104 2.75 16C2.75 12.5893 4.03837 9.47974 6.15505 7.13149L4.96751 5.94395ZM5.94122 27.03C8.59723 29.4542 12.1289 30.9344 16 30.9344C19.8692 30.9344 23.3992 29.4557 26.0548 27.0337L24.8672 25.8461C22.5191 27.9621 19.4101 29.25 16 29.25C12.5879 29.25 9.47731 27.9606 7.12874 25.8425L5.94122 27.03ZM30.9345 16C30.9345 19.8714 29.454 23.4033 27.0295 26.0593L25.842 24.8718C27.9604 22.5232 29.25 19.4123 29.25 16C29.25 12.5881 27.9607 9.47761 25.8428 7.12907L27.0303 5.94154C29.4543 8.5975 30.9345 12.129 30.9345 16Z"/>
        </g>
    </symbol>
    <symbol id="icon_crown" viewBox="0 0 100 101">
        <g>
            <path d="M14.6172 85.6719C-4.87255 66.1822 -4.87255 34.4735 14.6172 14.9837C34.1069 -4.50598 65.8156 -4.50598 85.3053 14.9837C104.795 34.4735 104.795 66.1822 85.3053 85.6719C65.8156 105.162 34.1069 105.162 14.6172 85.6719ZM82.9497 17.3394C64.7586 -0.851653 35.1638 -0.851653 16.9775 17.3394C-1.2135 35.5304 -1.2135 65.1253 16.9775 83.3116C35.1686 101.503 64.7634 101.503 82.9497 83.3116C101.141 65.1205 101.141 35.5257 82.9497 17.3394Z" />
            <path d="M83.4893 39.7251C83.3139 39.5498 83.1717 39.327 83.0912 39.0805C81.3612 33.9616 78.5363 29.4257 74.6971 25.5865C70.8626 21.7521 66.322 18.9272 61.2031 17.1925C60.5253 16.9603 60.0703 16.3299 60.0703 15.6142V3.46628C60.0703 2.95439 60.3073 2.47093 60.7102 2.15337C61.1178 1.83581 61.6439 1.7268 62.1368 1.85003C70.8863 4.03978 78.8965 8.58043 85.2951 14.9838C91.6937 21.3871 96.2344 29.3925 98.4241 38.1421C98.5474 38.6397 98.4336 39.1658 98.1208 39.5734C97.8032 39.9811 97.3198 40.2133 96.8079 40.2133H84.66C84.205 40.2133 83.7879 40.0285 83.4798 39.7204L83.4893 39.7251ZM77.0527 23.2309C80.9677 27.1459 83.9206 31.734 85.8449 36.8813H94.6324C92.4237 29.5252 88.4091 22.8043 82.9442 17.3394C77.4793 11.8745 70.7584 7.85999 63.4071 5.65603V14.4435C68.5544 16.3631 73.1424 19.3159 77.0574 23.2356L77.0527 23.2309Z"/>
            <path d="M14.616 85.6718C8.21737 79.2732 3.67197 71.2631 1.48222 62.5136C1.35899 62.0159 1.47275 61.4898 1.78557 61.0869C2.10313 60.6793 2.58656 60.447 3.09845 60.447H15.2464C15.9621 60.447 16.5972 60.902 16.8247 61.5798C18.5547 66.6987 21.3795 71.2346 25.2187 75.0738C29.0531 78.9082 33.5938 81.7331 38.7127 83.4678C39.3905 83.6953 39.8455 84.3305 39.8455 85.0462V97.1941C39.8455 97.706 39.6085 98.1894 39.2056 98.507C38.798 98.8245 38.2719 98.9335 37.7742 98.8103C29.0247 96.6206 21.0194 92.0799 14.616 85.6813V85.6718ZM5.28348 63.7743C7.49219 71.1304 11.5067 77.8513 16.9716 83.3162C22.4365 88.7811 29.1575 92.7956 36.5135 95.0043V86.2169C31.3662 84.2973 26.7781 81.3444 22.8631 77.4294C18.9481 73.5144 15.9952 68.9264 14.0709 63.7791H5.28348V63.7743Z"/>
            <path d="M60.5663 98.365C60.2535 98.0521 60.0781 97.6303 60.0781 97.1848V85.0369C60.0781 84.3212 60.5331 83.6861 61.2109 83.4586C66.3298 81.7286 70.8657 78.9037 74.7049 75.0645C78.5441 71.2253 81.3642 66.6894 83.0989 61.5705C83.3264 60.8927 83.9616 60.4377 84.6773 60.4377H96.8252C97.3371 60.4377 97.8205 60.6747 98.1381 61.0776C98.4556 61.4805 98.5647 62.0113 98.4414 62.5043C96.2469 71.2538 91.7063 79.2592 85.3076 85.6625C78.909 92.0659 70.8989 96.6065 62.1494 98.7963C61.6517 98.9195 61.1256 98.8058 60.7227 98.4929C60.6706 98.4455 60.6185 98.4029 60.5711 98.3555L60.5663 98.365ZM63.4102 86.2123V94.9998C70.7662 92.7911 77.4871 88.7765 82.952 83.3116C88.4169 77.8467 92.4267 71.1258 94.6402 63.7698H85.8527C83.9331 68.9171 80.9803 73.5004 77.0605 77.4201C73.1455 81.3351 68.5575 84.2927 63.4102 86.2123Z"/>
            <path d="M1.91901 39.7251C1.87161 39.6777 1.82423 39.6256 1.78631 39.5734C1.46875 39.1706 1.35973 38.6397 1.48296 38.142C3.67271 29.3925 8.21337 21.3824 14.6167 14.9838C21.0201 8.58516 29.0254 4.03977 37.775 1.85002C38.2726 1.72679 38.7988 1.84053 39.2016 2.15335C39.6045 2.47092 39.8415 2.95438 39.8415 3.46627V15.6142C39.8415 16.3299 39.3865 16.965 38.7087 17.1925C33.5898 18.9225 29.0539 21.7474 25.2147 25.5865C21.3803 29.421 18.5554 33.9616 16.8207 39.0805C16.5932 39.7583 15.9581 40.2133 15.2424 40.2133H3.09448C2.64895 40.2133 2.22235 40.0379 1.91427 39.7299L1.91901 39.7251ZM36.5095 5.65601C29.1535 7.86472 22.4325 11.8793 16.9676 17.3442C11.5027 22.8091 7.49293 29.53 5.27948 36.886H14.0669C15.9865 31.7387 18.9393 27.1554 22.8591 23.2356C26.7741 19.3206 31.3622 16.3678 36.5095 14.4435V5.65601Z"/>
            <path d="M77.0566 23.2309C62.1171 8.29129 37.8023 8.28655 22.8627 23.2309C7.91839 38.1752 7.92313 62.4852 22.8627 77.4248C37.8023 92.3644 62.1123 92.3692 77.0566 77.4248C92.001 62.4805 91.9962 38.1705 77.0566 23.2309Z"/>
            <path d="M63.7833 64.0054L36.2557 64.188C35.0961 64.1957 34.1622 65.1419 34.1699 66.3015L34.1764 67.2827C34.1841 68.4423 35.1304 69.3761 36.29 69.3684L63.8177 69.1858C64.9773 69.1781 65.9111 68.2318 65.9034 67.0722L65.8969 66.0911C65.8892 64.9315 64.9429 63.9977 63.7833 64.0054Z" />
            <path d="M40.0062 47.3892C39.7076 47.3892 39.4043 47.3228 39.1294 47.1901L36.9823 46.1521C36.0486 45.6971 35.622 44.5927 36.0106 43.6306L36.9965 41.1754C37.2999 40.4265 38.0156 39.9383 38.8213 39.9336C39.1673 39.9336 39.5086 40.0189 39.8119 40.1943L42.3714 41.6541C42.8501 41.9243 43.1961 42.3935 43.3193 42.9338C43.4425 43.4742 43.3335 44.0429 43.0207 44.4979L41.6178 46.5313C41.2528 47.0621 40.6461 47.3844 40.0015 47.3844L40.0062 47.3892Z"/>
            <path d="M59.8211 47.2564C59.1765 47.2564 58.5651 46.9484 58.1954 46.4223L56.8066 44.4648C56.4843 44.0145 56.3706 43.4457 56.4844 42.9054C56.5981 42.3651 56.9394 41.8911 57.4181 41.6114L60.0581 40.0616C60.3567 39.8862 60.698 39.7914 61.044 39.7867C61.8497 39.7819 62.5749 40.2606 62.8877 41.0048L63.8831 43.3888C64.2812 44.3463 63.8689 45.4601 62.9446 45.9246L60.698 47.0479C60.4278 47.1806 60.1244 47.2564 59.8258 47.2564H59.8211Z"/>
            <path d="M37.8437 62.3478C36.635 62.3573 35.5497 61.5989 35.1373 60.4614L30.5445 47.8206C30.2507 47.9628 29.9378 48.0718 29.6203 48.1523C29.2458 48.2471 28.8666 48.2945 28.4827 48.2945C28.26 48.2945 28.0419 48.2851 27.8286 48.2566C25.4351 47.9533 23.6198 45.901 23.6056 43.4837C23.5866 40.8105 25.7479 38.6208 28.4211 38.6018C31.0943 38.5829 33.2841 40.7442 33.2983 43.4174C33.2983 44.0335 33.194 44.626 32.976 45.1805C32.8575 45.4839 32.7106 45.773 32.54 46.0479L41.2752 50.2757L47.9583 40.5925C47.6786 40.474 47.4084 40.3271 47.1525 40.1517C46.669 39.8247 46.2472 39.417 45.9059 38.9383C45.3277 38.1231 45.0149 37.1609 45.0101 36.1656C44.9912 33.4924 47.1525 31.3027 49.8257 31.2837C49.9442 31.2837 50.0674 31.2837 50.1859 31.2932C52.5795 31.4543 54.5133 33.3739 54.6886 35.7675C54.7692 36.9003 54.4706 37.9857 53.826 38.9099C53.4848 39.3933 53.0676 39.8057 52.5889 40.1327C52.3377 40.3081 52.0676 40.455 51.7879 40.5735L58.5894 50.1573L67.1825 45.8583C67.0214 45.5502 66.8934 45.2279 66.7987 44.8914C66.6849 44.4838 66.6233 44.0572 66.6233 43.6259C66.6233 43.4316 66.6327 43.2373 66.6517 43.0477C66.9266 40.6115 68.9836 38.763 71.4341 38.7487C74.1073 38.7298 76.297 40.8911 76.3112 43.5643C76.3302 46.1143 74.349 48.2566 71.8038 48.432L71.5004 48.4415C71.0075 48.4415 70.5241 48.3751 70.0548 48.2329C69.7515 48.1381 69.4576 48.0196 69.1827 47.868L64.8696 60.2623C64.4762 61.4046 63.3955 62.1724 62.1869 62.1819L37.8437 62.3431V62.3478Z"/>
        </g>
    </symbol>
    <symbol id="icon_dollar" viewBox="0 0 100 100">
        <g>
            <path d="M99.1109 50.065C99.1109 77.3877 76.878 99.6206 49.5554 99.6206C22.2327 99.6206 -0.00012207 77.3877 -0.00012207 50.065C-0.00012207 22.7424 22.2327 0.509521 49.5554 0.509521C76.878 0.509521 99.1109 22.7424 99.1109 50.065ZM3.57003 50.065C3.57003 75.4205 24.1999 96.0504 49.5554 96.0504C74.9108 96.0504 95.5407 75.4205 95.5407 50.065C95.5407 24.7096 74.9108 4.07968 49.5554 4.07968C24.1999 4.07968 3.57003 24.7096 3.57003 50.065Z" />
            <path d="M40.0118 41.3114C40.0118 43.1329 41.2505 44.715 43.02 45.1522L46.3819 45.9953V37.3457H43.9879C41.8021 37.3457 40.0223 39.1256 40.0223 41.3114H40.0118Z" />
            <path d="M52.7292 62.7843H55.1233C57.3091 62.7843 59.089 61.0045 59.089 58.8187C59.089 56.9971 57.8503 55.415 56.0808 54.9779L52.7189 54.1348V62.7843H52.7292Z" />
            <path d="M49.5562 9.74194C27.3234 9.74194 9.22278 27.8321 9.22278 50.0754C9.22278 72.3187 27.313 90.4089 49.5562 90.4089C71.7995 90.4089 89.8897 72.3187 89.8897 50.0754C89.8897 27.8321 71.7995 9.74194 49.5562 9.74194ZM65.4607 43.7053H59.1009V40.5203C59.1009 38.7716 57.675 37.3352 55.9159 37.3352H52.7309V47.5774L57.6334 48.8056C62.234 49.9609 65.4502 54.0723 65.4502 58.8187C65.4502 64.5122 60.8184 69.144 55.1249 69.144H52.7309V77.2003H46.3712V69.144H43.1862C37.9194 69.144 33.6415 64.8661 33.6415 59.5993V56.4143H40.0011V59.5993C40.0011 61.348 41.4271 62.7844 43.1862 62.7844H46.3712V52.5422L41.4687 51.314C36.8681 50.1587 33.6519 46.0473 33.6519 41.3009C33.6519 35.6074 38.2837 30.9756 43.9772 30.9756H46.3712V22.9193H52.7309V30.9756H55.9159C61.1827 30.9756 65.4607 35.2535 65.4607 40.5203V43.7053Z" />
        </g>
    </symbol>
    <symbol id="icon_m" viewBox="0 0 100 100">
        <g>
            <path d="M49.7325 99.3895C22.4098 99.3895 0.187378 77.1567 0.187378 49.8444C0.187378 22.5321 22.4202 0.299316 49.7325 0.299316C77.0447 0.299316 99.2776 22.5321 99.2776 49.8444C99.2776 77.1567 77.0447 99.3895 49.7325 99.3895ZM49.7325 3.59884C24.2313 3.59884 3.4869 24.3432 3.4869 49.8444C3.4869 75.3456 24.2313 96.09 49.7325 96.09C75.2336 96.09 95.9781 75.3456 95.9781 49.8444C95.9781 24.3432 75.2336 3.59884 49.7325 3.59884Z" />
            <path d="M82.0647 14.4911L66.7264 29.8293L69.7441 32.847L85.0823 17.5087L82.0647 14.4911Z" />
            <path d="M29.2638 67.2899L13.9255 82.6282L16.9431 85.6458L32.2814 70.3075L29.2638 67.2899Z" />
            <path d="M70.1932 67.2976L67.1757 70.3152L82.5139 85.6534L85.5315 82.6358L70.1932 67.2976Z" />
            <path d="M16.9393 14.0366L13.9218 17.0542L29.2527 32.3851L32.2703 29.3675L16.9393 14.0366Z" />
            <path d="M61.8166 51.1768C62.8158 50.1776 62.8158 48.5642 61.8166 47.5754L59.6932 45.4625C58.694 44.4632 57.0807 44.4632 56.0919 45.4625L54.9469 46.6074L53.625 45.2855C52.6258 44.2863 51.0124 44.2863 50.0236 45.2855L48.8787 46.4409L47.5568 45.1086C46.5575 44.1093 44.9442 44.1093 43.9554 45.1086L36.9295 52.1344C36.8775 52.1864 36.8775 52.2697 36.9295 52.3321C37.8663 53.2689 39.3964 53.2689 40.3436 52.3321L44.8713 47.8044C45.3605 47.3152 46.1516 47.3152 46.6408 47.8044L46.9739 48.1375C47.0363 48.2 47.0363 48.2936 46.9739 48.356L43.1956 52.1344C43.1435 52.1864 43.1435 52.2697 43.1956 52.3321C44.1323 53.2689 45.6624 53.2689 46.6096 52.3321L50.95 47.9918C51.4392 47.5026 52.2303 47.5026 52.7195 47.9918L53.0525 48.3248C53.1045 48.3769 53.1045 48.4602 53.0525 48.5226L49.4095 52.1656C49.3574 52.2177 49.3574 52.301 49.4095 52.3634C50.3463 53.3002 51.8764 53.3002 52.8235 52.3634L57.0182 48.1687C57.5074 47.6795 58.2985 47.6795 58.7877 48.1687L59.5059 48.8869C59.7869 49.1679 59.7869 49.6363 59.5059 49.9173L59.3914 50.0318C59.1104 50.3128 58.642 50.3128 58.3609 50.0318L57.4346 49.1055C57.3825 49.0535 57.2992 49.0535 57.2368 49.1055L55.6339 50.7084C55.5818 50.7604 55.5818 50.8437 55.6339 50.9062L57.0806 52.353C58.0799 53.3522 59.6932 53.3522 60.682 52.353L61.827 51.208L61.8166 51.1768Z" />
            <path d="M49.7336 11.853C28.7498 11.853 11.7421 28.8607 11.7421 49.8445C11.7421 70.8284 28.7498 87.8361 49.7336 87.8361C70.7174 87.8361 87.7251 70.8284 87.7251 49.8445C87.7251 28.8607 70.7174 11.853 49.7336 11.853ZM51.2845 23.5836C57.384 23.9375 62.9214 26.3731 67.2097 30.1827L61.7243 35.668C58.862 33.2428 55.2502 31.6711 51.2845 31.338V23.5836ZM48.1931 23.5836V31.338C44.2274 31.6607 40.6157 33.2428 37.7533 35.668L32.2679 30.1827C36.5563 26.3731 42.0937 23.9375 48.1931 23.5836ZM30.0821 32.3685L35.5674 37.8538C33.1422 40.7162 31.5706 44.328 31.2375 48.2937H23.483C23.8369 42.1942 26.2726 36.6568 30.0821 32.3685ZM23.483 51.3851H31.2375C31.5602 55.3508 33.1422 58.9625 35.5674 61.8249L30.0821 67.3103C26.2726 63.0219 23.8369 57.4845 23.483 51.3851ZM48.1931 76.0952C42.0937 75.7413 36.5563 73.3056 32.2679 69.4961L37.7533 64.0107C40.6157 66.436 44.2274 68.0076 48.1931 68.3407V76.0952ZM33.7668 49.8341C33.7668 41.018 40.9175 33.8673 49.7336 33.8673C58.5497 33.8673 65.7005 41.018 65.7005 49.8341C65.7005 58.6502 58.5497 65.801 49.7336 65.801C40.9175 65.801 33.7668 58.6502 33.7668 49.8341ZM51.2845 76.0952V68.3407C55.2502 68.018 58.862 66.436 61.7243 64.0107L67.2097 69.4961C62.9214 73.3056 57.384 75.7413 51.2845 76.0952ZM69.3955 67.3103L63.9102 61.8249C66.3354 58.9625 67.9071 55.3508 68.2402 51.3851H75.9946C75.6407 57.4845 73.2051 63.0219 69.3955 67.3103ZM68.2402 48.2937C67.9175 44.328 66.3354 40.7162 63.9102 37.8538L69.3955 32.3685C73.2051 36.6568 75.6407 42.1942 75.9946 48.2937H68.2402Z" />
        </g>
    </symbol>
    <symbol id="icon_shield" viewBox="0 0 100 100">
        <g>
            <path d="M49.7325 100C37.0339 100 24.3458 95.1705 14.6762 85.5009C-4.65264 66.1721 -4.65264 34.7276 14.6762 15.3987C24.044 6.03095 36.4927 0.878662 49.7325 0.878662C62.9722 0.878662 75.421 6.03095 84.7888 15.3987C104.118 34.7276 104.118 66.1721 84.7888 85.5009C75.1296 95.1601 62.431 100 49.7325 100ZM17.2784 82.8988C35.1708 100.791 64.2838 100.791 82.1762 82.8988C100.069 65.0063 100.069 35.8933 82.1762 18.0009C73.5058 9.33049 61.9835 4.56336 49.7221 4.56336C37.4607 4.56336 25.9383 9.3409 17.2679 18.0009C-0.624513 35.8933 -0.624513 65.0063 17.2679 82.8988H17.2784Z" />
            <path d="M49.0769 68.9929C49.2538 69.4196 49.6701 69.6693 50.1073 69.6693C50.253 69.6693 50.3987 69.6382 50.5445 69.5861C54.0418 68.1185 57.2268 65.8493 59.7457 63.0182C60.1517 62.5602 60.11 61.8525 59.652 61.4466C59.194 61.0407 58.4862 61.0823 58.0803 61.5403C55.78 64.132 52.876 66.2033 49.6805 67.5356C49.1185 67.775 48.8478 68.4308 49.0872 68.9929H49.0769Z" />
            <path d="M68.6225 33.312L50.1368 25.9218C49.8661 25.8177 49.5747 25.8177 49.3041 25.9218L30.8183 33.312C30.3916 33.4785 30.121 33.8844 30.121 34.3424V47.5822C30.1418 59.8019 37.865 70.8455 49.3353 75.0506C49.4602 75.0922 49.5851 75.1131 49.7204 75.1131C49.8558 75.1131 49.9807 75.0922 50.1056 75.0506C61.5759 70.8351 69.299 59.8019 69.3199 47.5822V34.3424C69.3199 33.8844 69.0493 33.4785 68.6225 33.312ZM67.0925 47.5822C67.0716 58.6986 60.0978 68.8262 49.7308 72.8127C39.3638 68.8262 32.3796 58.6986 32.3588 47.5822V35.1022L49.7308 28.1597L67.0925 35.1022V47.5822Z" />
            <path d="M42.0083 35.0502C41.7376 34.9357 41.4358 34.9357 41.1548 35.0502L36.7519 36.8094C36.3252 36.9759 36.0546 37.3818 36.0546 37.8398V42.5341C36.0546 43.1482 36.5542 43.6478 37.1683 43.6478C37.7824 43.6478 38.282 43.1482 38.282 42.5341V38.5996L41.9771 37.1217C42.2581 37.0072 42.4663 36.7989 42.5912 36.5179C42.7056 36.2473 42.7056 35.9455 42.5912 35.6644C42.4767 35.3834 42.2685 35.1751 41.9979 35.0502H42.0083Z" />
            <path d="M77.8876 22.2998C70.3726 14.7743 60.3698 10.6421 49.7322 10.6421C39.0946 10.6421 29.1023 14.7847 21.5768 22.2998C6.05756 37.819 6.05756 63.0808 21.5768 78.6105C29.3417 86.3754 39.5317 90.2473 49.7322 90.2473C59.9326 90.2473 70.1227 86.365 77.8876 78.6105C93.4069 63.0913 93.4069 37.8295 77.8876 22.2998ZM72.3814 47.5823C72.4126 61.7068 63.3883 74.0619 49.9299 78.3399C49.805 78.3815 49.6697 78.3815 49.5344 78.3399C36.076 74.0619 27.0518 61.7068 27.083 47.5823V31.959C27.083 31.6987 27.2391 31.4594 27.4889 31.3553L49.4928 22.56C49.5657 22.5288 49.6489 22.5184 49.7322 22.5184C49.8154 22.5184 49.8988 22.5288 49.9716 22.56L71.9755 31.3657C72.2253 31.4594 72.3814 31.6987 72.3814 31.9694V47.5927V47.5823Z" />
        </g>
    </symbol>
    <symbol id="icon_soccer" viewBox="0 0 100 100">
        <g>
            <path d="M49.8769 99.9324C22.5542 99.9324 0.331787 77.6996 0.331787 50.3874C0.331787 23.0751 22.5646 0.842285 49.8769 0.842285C77.1891 0.842285 99.422 23.0751 99.422 50.3874C99.422 77.6996 77.1891 99.9324 49.8769 99.9324ZM49.8769 4.14181C24.3757 4.14181 3.63131 24.8862 3.63131 50.3874C3.63131 75.8885 24.3757 96.6329 49.8769 96.6329C75.378 96.6329 96.1224 75.8885 96.1224 50.3874C96.1224 24.8862 75.378 4.14181 49.8769 4.14181Z" />
            <path d="M65.9512 19.4529C65.7014 19.4529 65.4516 19.4009 65.2226 19.2864C60.4242 16.9132 55.2615 15.7058 49.8803 15.7058C44.499 15.7058 39.3363 16.9132 34.538 19.2864C33.903 19.5986 33.1432 19.4737 32.6436 18.9741L24.1293 10.4599C23.765 10.0956 23.5985 9.59593 23.6609 9.08591C23.7234 8.57588 24.0148 8.12833 24.452 7.86811C32.1232 3.2675 40.9185 0.842285 49.8907 0.842285C58.8629 0.842285 67.6582 3.27791 75.3294 7.86811C75.7666 8.12833 76.058 8.57588 76.1205 9.08591C76.1829 9.59593 76.006 10.0956 75.6521 10.4599L67.1378 18.9741C66.8151 19.2864 66.3988 19.4529 65.9616 19.4529H65.9512ZM49.8803 12.4063C55.3656 12.4063 60.6532 13.5512 65.6077 15.8099L71.7697 9.64795C65.0665 6.03615 57.541 4.1418 49.8803 4.1418C42.2195 4.1418 34.6941 6.03615 27.991 9.64795L34.1528 15.8099C39.1074 13.5512 44.3949 12.4063 49.8803 12.4063Z" />
            <path d="M49.8785 99.9324C40.9062 99.9324 32.1109 97.4968 24.4398 92.9066C24.0026 92.6464 23.7112 92.1988 23.6487 91.6888C23.5863 91.1788 23.7632 90.6792 24.1171 90.3149L32.6314 81.8006C33.131 81.301 33.9012 81.1761 34.5258 81.4884C39.3241 83.8615 44.4868 85.0689 49.8681 85.0689C55.2493 85.0689 60.4121 83.8615 65.2105 81.4884C65.8454 81.1761 66.6052 81.301 67.1048 81.8006L75.6191 90.3149C75.9834 90.6792 76.1499 91.1788 76.0874 91.6888C76.025 92.1988 75.7335 92.6464 75.2964 92.9066C67.6252 97.5072 58.83 99.9324 49.8577 99.9324H49.8785ZM27.9892 91.1268C34.6923 94.7386 42.2177 96.6329 49.8785 96.6329C57.5392 96.6329 65.0647 94.7386 71.7679 91.1268L65.6059 84.9649C60.6514 87.2235 55.3638 88.3685 49.8785 88.3685C44.3931 88.3685 39.1056 87.2235 34.1511 84.9649L27.9892 91.1268Z" />
            <path d="M90.9825 76.6275C90.5453 76.6275 90.129 76.4609 89.8167 76.1487L81.3024 67.6344C80.8028 67.1348 80.6779 66.3646 80.9902 65.7401C83.3634 60.9417 84.5708 55.779 84.5708 50.3977C84.5708 45.0165 83.3634 39.8538 80.9902 35.0554C80.6779 34.4205 80.8028 33.6502 81.3024 33.161L89.8167 24.6468C90.181 24.2825 90.6806 24.1159 91.1906 24.1784C91.7007 24.2408 92.1482 24.5323 92.4084 24.9694C97.0091 32.6406 99.4343 41.4359 99.4343 50.4082C99.4343 59.3804 97.0091 68.1757 92.4084 75.8469C92.1482 76.284 91.7007 76.5755 91.1906 76.6379C91.1178 76.6379 91.0553 76.6379 90.9825 76.6379V76.6275ZM84.4563 66.1147L90.6182 72.2767C94.23 65.5735 96.1243 58.0481 96.1243 50.3873C96.1243 42.7266 94.23 35.2012 90.6182 28.498L84.4563 34.6599C86.715 39.6144 87.8599 44.902 87.8599 50.3873C87.8599 55.8727 86.715 61.1602 84.4563 66.1147Z" />
            <path d="M8.77293 76.6276C8.70007 76.6276 8.63762 76.6276 8.57516 76.6172C8.06514 76.5547 7.61759 76.2633 7.35737 75.8261C2.75675 68.1549 0.331543 59.3596 0.331543 50.3874C0.331543 41.4152 2.75675 32.6199 7.35737 24.9487C7.61759 24.5115 8.06514 24.2201 8.57516 24.1576C9.08519 24.0952 9.58481 24.2721 9.94911 24.626L18.4634 33.1403C18.963 33.6399 19.0879 34.4101 18.7756 35.0347C16.4024 39.833 15.195 44.9957 15.195 50.377C15.195 55.7582 16.4024 60.9209 18.7756 65.7193C19.0879 66.3542 18.963 67.1245 18.4634 67.6137L9.94911 76.1279C9.63685 76.4402 9.22051 76.6172 8.78335 76.6172L8.77293 76.6276ZM9.13721 28.4981C5.52541 35.2012 3.63106 42.7266 3.63106 50.3874C3.63106 58.0481 5.52541 65.5736 9.13721 72.2768L15.2992 66.1148C13.0405 61.1603 11.8955 55.8727 11.8955 50.3874C11.8955 44.902 13.0405 39.6145 15.2992 34.66L9.13721 28.4981Z" />
            <path d="M49.878 12.3958C28.9358 12.3958 11.8865 29.4347 11.8865 50.3873C11.8865 71.3399 28.9254 88.3788 49.878 88.3788C70.8306 88.3788 87.8695 71.3399 87.8695 50.3873C87.8695 29.4347 70.8306 12.3958 49.878 12.3958ZM71.2574 37.9073C73.0581 40.9883 74.151 44.3503 74.5049 47.9204C74.5153 48.0662 74.4528 48.2015 74.3279 48.2743C71.6112 49.9397 69.1756 51.9798 67.0731 54.3634C66.9794 54.4779 66.8233 54.5195 66.688 54.4674L61.9937 52.9374C61.8583 52.8958 61.7647 52.7813 61.7439 52.6356C61.213 48.7532 60.0056 45.0372 58.1529 41.5815C58.0904 41.4566 58.1009 41.3109 58.1841 41.1964L61.0881 37.1995C61.161 37.1059 61.2754 37.0434 61.3899 37.0434C61.4212 37.0434 61.442 37.0434 61.4732 37.0434C64.575 37.7304 67.7601 37.9594 70.9243 37.6991C71.07 37.6887 71.2053 37.7616 71.2781 37.8865L71.2574 37.9073ZM59.1833 53.2913C59.1937 53.3953 59.1625 53.4995 59.1 53.5723C56.6332 56.4139 53.4898 58.6934 50.0237 60.1506C49.93 60.1922 49.8364 60.1922 49.7427 60.1506C46.2766 58.683 43.1332 56.4035 40.6664 53.5723C40.6039 53.4995 40.5727 53.3953 40.5831 53.2913C41.0619 49.5233 42.2381 45.922 44.0596 42.5912C44.1116 42.4975 44.1949 42.4351 44.299 42.4143C46.1309 42.0292 48.0044 41.8314 49.8884 41.8314C51.7724 41.8314 53.6459 42.0292 55.4778 42.4143C55.5819 42.4351 55.6652 42.4975 55.7172 42.5912C57.5387 45.922 58.7045 49.5233 59.1937 53.2913H59.1833ZM58.6213 27.4571C58.6213 27.4571 58.7462 27.353 58.8711 27.353C58.9127 27.353 58.9648 27.353 59.0168 27.3842C62.8472 28.9039 66.2716 31.4019 68.9362 34.5974C69.0715 34.7535 69.0195 34.9201 68.9882 34.9825C68.9674 35.0345 68.8738 35.2011 68.6552 35.2011C66.2924 35.2323 63.9401 34.9617 61.6606 34.4205C61.5669 34.3996 61.4837 34.3372 61.4316 34.2539C60.2138 32.245 59.2354 30.08 58.5276 27.8318C58.4651 27.634 58.5796 27.4987 58.6317 27.4571H58.6213ZM44.6216 26.208C48.0669 25.469 51.6995 25.469 55.1448 26.208C55.2801 26.2393 55.3946 26.3434 55.4258 26.4787C56.1648 29.57 57.3618 32.5261 58.9751 35.2636C59.048 35.3885 59.0376 35.5445 58.9544 35.6694L56.0711 39.6456C55.9879 39.76 55.8422 39.8225 55.7069 39.7913C51.8973 39.021 47.8692 39.021 44.0596 39.7913C43.9243 39.8225 43.7785 39.76 43.6953 39.6456L40.8121 35.6694C40.7288 35.555 40.7184 35.3885 40.7913 35.2636C42.4046 32.5261 43.6016 29.57 44.3406 26.4787C44.3718 26.3434 44.4863 26.2393 44.6216 26.208ZM30.8302 34.5974C33.4948 31.3915 36.9193 28.8935 40.7497 27.3842C40.8017 27.3634 40.8537 27.353 40.8953 27.353C41.0306 27.353 41.1139 27.4259 41.1451 27.4571C41.1972 27.5091 41.3117 27.634 41.2493 27.8318C40.5415 30.0905 39.563 32.245 38.3452 34.2539C38.2932 34.3372 38.2099 34.3996 38.1162 34.4205C35.8368 34.9617 33.4844 35.2323 31.1217 35.2011C30.9031 35.2011 30.8094 35.0345 30.7886 34.9825C30.7574 34.9201 30.7053 34.7535 30.8406 34.5974H30.8302ZM28.5091 37.9073C28.5716 37.7928 28.6965 37.72 28.8318 37.72C28.8318 37.72 28.8525 37.72 28.863 37.72C32.0376 37.9698 35.2227 37.7512 38.314 37.0642C38.4597 37.033 38.6054 37.0851 38.6887 37.21L41.5928 41.2068C41.676 41.3213 41.6864 41.4775 41.624 41.592C39.7712 45.0476 38.5638 48.7635 38.033 52.6459C38.0121 52.7812 37.9185 52.8958 37.7832 52.9478L33.0889 54.4779C32.9535 54.5195 32.7974 54.4779 32.7037 54.3738C30.6012 51.9902 28.1656 49.9501 25.449 48.2847C25.3345 48.2118 25.2616 48.0766 25.272 47.9308C25.6259 44.3607 26.7188 40.9883 28.5195 37.9177L28.5091 37.9073ZM29.6436 63.5542C29.5812 63.752 29.4042 63.7936 29.3314 63.804C29.2585 63.804 29.0919 63.804 28.9774 63.6374C26.7604 60.1506 25.449 56.112 25.1887 51.9694C25.1783 51.7612 25.3136 51.6571 25.3761 51.6259C25.4385 51.5947 25.6051 51.5218 25.7716 51.6467C27.6972 53.0103 29.4459 54.6132 30.9759 56.3931C31.0384 56.4659 31.0696 56.5596 31.0592 56.6637C30.8718 59.0056 30.393 61.3268 29.6332 63.5646L29.6436 63.5542ZM39.9273 73.0573C36.6798 71.6313 33.8175 69.5392 31.4235 66.8537C31.3298 66.7497 31.2986 66.5935 31.3506 66.4686C32.5684 63.5334 33.3387 60.442 33.6405 57.2778C33.651 57.1321 33.755 57.0072 33.8903 56.9655L38.5326 55.4563C38.5326 55.4563 38.6055 55.4354 38.6471 55.4354C38.7512 55.4354 38.8449 55.4771 38.9177 55.5604C41.5199 58.4748 44.7778 60.8479 48.348 62.4197C48.4833 62.4821 48.5665 62.607 48.5665 62.7527V67.6344C48.5665 67.7801 48.4833 67.9154 48.348 67.9675C45.4335 69.2269 42.7272 70.9235 40.302 72.9949C40.198 73.0885 40.0418 73.1093 39.9169 73.0469L39.9273 73.0573ZM56.3001 74.0878C56.2897 74.1606 56.2377 74.3271 56.0295 74.3792C52.0118 75.3992 47.765 75.3992 43.7473 74.3792C43.5495 74.3271 43.4871 74.1606 43.4767 74.0878C43.4663 74.0149 43.4454 73.8484 43.6224 73.7131C45.5168 72.3079 47.5777 71.1317 49.7531 70.2261C49.8468 70.1845 49.9405 70.1845 50.0341 70.2261C52.1991 71.1317 54.2601 72.3079 56.1648 73.7131C56.3314 73.838 56.3209 74.0149 56.3105 74.0878H56.3001ZM68.3637 66.8642C65.9698 69.5496 63.1074 71.6313 59.8599 73.0573C59.7246 73.1198 59.5789 73.0885 59.4748 73.0052C57.0496 70.9339 54.3537 69.2373 51.4289 67.9779C51.2936 67.9154 51.2103 67.7905 51.2103 67.6448V62.7632C51.2103 62.6174 51.2936 62.4821 51.4289 62.4301C54.999 60.8584 58.2673 58.4852 60.8591 55.5708C60.9319 55.4875 61.0256 55.4459 61.1297 55.4459C61.1714 55.4459 61.2026 55.4459 61.2442 55.4667L65.8865 56.976C66.0218 57.0176 66.1259 57.1425 66.1363 57.2882C66.4381 60.4524 67.2084 63.5334 68.4262 66.479C68.4782 66.6039 68.4574 66.7601 68.3533 66.8642H68.3637ZM70.7994 63.6479C70.6849 63.8248 70.5079 63.8248 70.4455 63.8144C70.3726 63.8144 70.2061 63.7624 70.1332 63.5646C69.3838 61.3268 68.905 59.0056 68.7072 56.6637C68.7072 56.57 68.728 56.4659 68.7905 56.3931C70.3205 54.6132 72.0692 53.0207 73.9948 51.6467C74.0676 51.5947 74.1405 51.5739 74.203 51.5739C74.2862 51.5739 74.3487 51.6051 74.3903 51.6259C74.4528 51.6571 74.5985 51.7612 74.5777 51.9694C74.3175 56.112 73.006 60.1506 70.789 63.6374L70.7994 63.6479Z" />
        </g>
    </symbol>
    <symbol id="icon_timer" viewBox="0 0 100 100">
        <g>
            <path d="M49.6153 99.4071C36.9167 99.4071 24.2286 94.5775 14.559 84.9078C-4.76983 65.579 -4.76983 34.1345 14.559 14.8057C23.9268 5.43793 36.3755 0.285645 49.6153 0.285645C62.8551 0.285645 75.3038 5.43793 84.6716 14.8057C104 34.1345 104 65.579 84.6716 84.9078C75.0124 94.5671 62.3138 99.4071 49.6153 99.4071ZM17.1612 82.3057C35.0536 100.198 64.1665 100.198 82.059 82.3057C99.9514 64.4132 99.9514 35.3003 82.059 17.4079C73.3886 8.73747 61.8662 3.97028 49.6049 3.97028C37.3435 3.97028 25.8211 8.74788 17.1507 17.4079C-0.7417 35.3003 -0.7417 64.4132 17.1507 82.3057H17.1612Z" />
            <path d="M51.4497 39.4224L42.2693 52.2874H47.7754V61.4678L56.9559 48.6131H51.4497V39.4224Z" />
            <path d="M49.6055 32.2715C39.5508 32.2715 31.3904 40.4319 31.3904 50.4866C31.3904 60.5413 39.5508 68.6809 49.6055 68.6809C59.6602 68.6809 67.8206 60.5205 67.8206 50.4866C67.8206 40.4527 59.6602 32.2715 49.6055 32.2715ZM49.6055 66.4326C40.779 66.4326 33.6178 59.2715 33.6178 50.445C33.6178 41.6185 40.779 34.4573 49.6055 34.4573C58.432 34.4573 65.5932 41.6185 65.5932 50.445C65.5932 59.2715 58.432 66.4326 49.6055 66.4326Z" />
            <path d="M77.7625 21.7068C70.2474 14.1813 60.2447 10.0491 49.6071 10.0491C38.9694 10.0491 28.9772 14.1917 21.4517 21.7068C5.93244 37.226 5.93244 62.4878 21.4517 78.0175C29.2166 85.7823 39.4066 89.6647 49.6071 89.6647C59.8075 89.6647 69.9976 85.7823 77.7625 78.0175C93.2817 62.4982 93.2817 37.2364 77.7625 21.7068ZM49.6071 75.1968C35.9926 75.1968 24.9074 64.1115 24.9074 50.497C24.9074 44.4808 27.062 38.9643 30.6426 34.6551L27.624 31.6366C26.7601 30.7727 26.7601 29.3675 27.624 28.4932C28.4879 27.6189 29.8931 27.6293 30.7675 28.4932L33.786 31.5117C37.5331 28.3787 42.2481 26.3178 47.39 25.8806V23.8405H45.35C43.5493 23.8405 42.0608 22.3521 42.0608 20.5514V18.834C42.0608 17.0125 43.5493 15.5449 45.35 15.5449H53.8851C55.6857 15.5449 57.1742 17.0125 57.1742 18.834V20.5514C57.1742 22.3521 55.6857 23.8405 53.8851 23.8405H51.8449V25.8806C56.9972 26.3282 61.7019 28.3891 65.449 31.5117L68.4675 28.4932C69.3314 27.6293 70.7366 27.6293 71.6109 28.4932C72.4748 29.3571 72.4748 30.7622 71.6109 31.6366L68.5924 34.6551C72.173 38.9643 74.3276 44.4704 74.3276 50.497C74.3276 64.1115 63.2424 75.1968 49.6279 75.1968H49.6071Z" />
        </g>
    </symbol>
    <symbol id="icon_world" viewBox="0 0 100 101">
        <g>
            <path d="M0.546753 50.4613C0.546753 23.1386 22.7796 0.905762 50.1023 0.905762C77.425 0.905762 99.6578 23.1386 99.6578 50.4613C99.6578 77.7839 77.425 100.017 50.1023 100.017C22.7796 100.017 0.546753 77.7839 0.546753 50.4613ZM96.0877 50.4613C96.0877 25.1058 75.4577 4.47592 50.1023 4.47592C24.7469 4.47592 4.11697 25.1058 4.11697 50.4613C4.11697 75.8167 24.7469 96.4466 50.1023 96.4466C75.4577 96.4466 96.0877 75.8167 96.0877 50.4613Z" />
            <path d="M98.1434 49.2644H76.4414V53.5423H98.1434V49.2644Z" />
            <path d="M23.4207 49.2644H1.71863V53.5423H23.4207V49.2644Z" />
            <path d="M52.4107 78.2419H48.1328V99.944H52.4107V78.2419Z" />
            <path d="M52.4107 2.86255H48.1328V24.5645H52.4107V2.86255Z" />
            <path d="M75.7859 24.2522C60.9432 9.40944 36.868 9.40944 22.0148 24.2522C7.17213 39.0949 7.17213 63.1701 22.0148 78.0232C36.8576 92.8659 60.9328 92.8659 75.7859 78.0232C90.6286 63.1805 90.6286 39.1053 75.7859 24.2522ZM56.2489 27.4684C60.5789 28.8112 64.4613 31.3196 67.4798 34.7337L68.0626 35.3894L67.2092 35.5872C64.9505 36.118 62.5357 36.5552 60.0376 36.8778L59.5901 36.9403L59.4652 36.5031C59.0488 35.0772 58.5596 33.7032 57.9975 32.4333C57.3001 30.8408 56.5195 29.446 55.666 28.2699L54.7292 26.9896L56.2489 27.458V27.4684ZM38.8768 49.9511L38.8977 49.4098C39.0018 46.1207 39.3661 42.9773 39.9906 40.0837L40.0843 39.6257L40.5526 39.6673C46.0276 40.1461 51.8773 40.1253 57.321 39.6153L57.7893 39.5737L57.8934 40.0317C58.5284 42.9565 58.8927 46.1103 58.9863 49.4098V49.9511H38.8873H38.8768ZM58.9863 52.3659V52.9072C58.8718 56.2067 58.5075 59.3605 57.8726 62.2853L57.7685 62.7433L57.3001 62.7017C51.8564 62.1916 46.0068 62.1812 40.5319 62.6496L40.0634 62.6912L39.9697 62.2333C39.3452 59.3396 38.9809 56.2067 38.8768 52.9072L38.856 52.3659H58.9655H58.9863ZM48.9316 26.5629C51.9605 26.5629 55.0415 30.4036 56.9671 36.5968L57.1648 37.2213L56.5091 37.2734C53.9486 37.4919 51.3048 37.6064 48.6506 37.6064C46.1837 37.6064 43.7273 37.5127 41.3333 37.315L40.6775 37.2629L40.8753 36.628C42.8009 30.4141 45.8923 26.5525 48.9316 26.5525V26.5629ZM30.2793 34.8481C33.3186 31.3821 37.2323 28.832 41.6143 27.4789L43.1444 27.0105L42.1972 28.3011C41.3437 29.4669 40.5527 30.872 39.8657 32.4542C39.314 33.7032 38.8144 35.0979 38.3773 36.5968L38.2524 37.0236L37.8048 36.9715C35.2859 36.6593 32.8503 36.2429 30.5604 35.7121L29.6964 35.5143L30.2793 34.8481ZM24.2007 49.389C24.4921 45.3297 25.7932 41.3744 27.9686 37.9291L28.1768 37.6064L28.5515 37.7001C31.2161 38.3767 34.0889 38.9179 37.1074 39.3031L37.6695 39.3759L37.5549 39.938C36.9304 42.9565 36.5766 46.1519 36.4829 49.4411V49.9511H24.1694L24.2111 49.389H24.2007ZM28.1768 64.7105L27.9686 64.3878C25.7932 60.953 24.4921 56.9873 24.2007 52.9279L24.159 52.3659H36.462V52.8759C36.5661 56.165 36.9305 59.3709 37.5446 62.379L37.6591 62.941L37.097 63.0139C34.0889 63.399 31.2057 63.9403 28.5411 64.6169L28.1664 64.7105H28.1768ZM41.6143 74.8485C37.2323 73.4954 33.3186 70.9453 30.2793 67.4792L29.6964 66.8131L30.5604 66.6153C32.8503 66.0949 35.2859 65.6681 37.8048 65.3558L38.2524 65.3038L38.3773 65.7306C38.8144 67.2294 39.314 68.6242 39.8657 69.8732C40.5631 71.4657 41.3437 72.8605 42.1972 74.0367L43.1444 75.3273L41.6143 74.8589V74.8485ZM48.9316 75.7541C45.8923 75.7541 42.8009 71.8925 40.8753 65.6785L40.6775 65.0436L41.3333 64.9916C46.2982 64.596 51.5858 64.6064 56.5091 65.0332L57.1648 65.0852L56.9671 65.7098C55.0311 71.8925 51.9501 75.7437 48.9316 75.7437V75.7541ZM67.4798 67.5833C64.4613 70.9973 60.5684 73.5058 56.2489 74.8485L54.7292 75.3169L55.666 74.0367C56.5195 72.8709 57.3001 71.4657 57.9975 69.8732C58.5492 68.593 59.0488 67.2294 59.4652 65.8034L59.5901 65.3663L60.0376 65.4287C62.5357 65.7514 64.9505 66.1885 67.2092 66.7194L68.0626 66.9276L67.4798 67.5833ZM73.6521 52.9279C73.3607 57.0289 72.0388 61.0363 69.8113 64.5127L69.6032 64.8354L69.2285 64.7418C66.5951 64.0444 63.7327 63.4927 60.735 63.0868L60.1729 63.0139L60.2874 62.4623C60.9119 59.4438 61.2762 56.2275 61.3699 52.8863V52.3763H73.6833L73.6417 52.9383L73.6521 52.9279ZM61.3907 49.9511V49.4411C61.2866 46.0999 60.9224 42.8732 60.2978 39.8651L60.1834 39.3135L60.7454 39.2406C63.7431 38.8347 66.595 38.283 69.2388 37.5856L69.6136 37.492L69.8217 37.8146C72.0491 41.2911 73.3815 45.288 73.6625 49.3994L73.7042 49.9615H61.4011L61.3907 49.9511Z" />
        </g>
    </symbol>









</svg>