<svg xmlns="http://www.w3.org/2000/svg">
    <symbol id="icon_crown" viewBox="0 0 100 101">
        <g>
            <path fill-rule="evenodd" clip-rule="evenodd" d="M15.6173 14.6173C19.6406 10.594 24.1845 7.40129 29.0342 5.03907C32.1377 3.52285 35.401 2.32812 38.7751 1.48369C38.8414 1.46727 38.9083 1.45505 38.9752 1.44696C46.8416 -0.482914 55.0887 -0.482319 62.9547 1.44874C63.0157 1.45691 63.0765 1.46851 63.1368 1.48358C65.7581 2.13961 68.313 3.00664 70.7781 4.07155C76.4206 6.50025 81.7036 10.0155 86.3054 14.6173C99.1126 27.4246 103.504 45.5083 99.479 61.9338C99.4708 62.0022 99.4583 62.0704 99.4414 62.1378C98.8133 64.642 97.993 67.0853 96.992 69.4475C94.5592 75.2143 90.997 80.6139 86.3054 85.3055C80.8733 90.7375 74.492 94.6556 67.6906 97.0596C66.2029 97.5872 64.6876 98.0449 63.1494 98.4298C63.1124 98.439 63.0752 98.4468 63.0379 98.4534C55.1597 100.402 46.8963 100.412 39.0139 98.4852C38.9337 98.4772 38.8537 98.4635 38.7743 98.4438C30.0248 96.2541 22.0195 91.7135 15.6161 85.3149V85.3054C14.9464 84.6357 14.297 83.9483 13.6685 83.2443C10.9043 80.151 8.59246 76.7937 6.73297 73.2588C4.88334 69.7504 3.45192 66.0212 2.48234 62.1471C2.46514 62.0776 2.45256 62.0076 2.44449 61.9375C0.518157 54.0785 0.518502 45.8399 2.44553 37.9811C2.45376 37.9123 2.46626 37.8437 2.48309 37.7757C3.51708 33.6442 5.07534 29.6776 7.10639 25.9676C8.84782 22.7815 10.9617 19.7464 13.4481 16.9268C14.1452 16.1358 14.8685 15.3655 15.6173 14.6173ZM37.5096 5.29698C35.2664 5.9687 33.0642 6.81242 30.9239 7.82816C27.6435 9.38854 24.5493 11.3316 21.708 13.6193C20.4196 14.6585 19.174 15.7763 17.9777 16.9729C12.3329 22.6177 8.43978 29.3605 6.2982 36.5197H15.067C16.7979 31.8785 19.3688 27.6957 22.7311 24.0446C23.0983 23.6451 23.4755 23.2516 23.8627 22.8644C24.6335 22.0934 25.4292 21.3622 26.2473 20.6707C29.6013 17.8322 33.375 15.6228 37.5096 14.0771V5.29698ZM14.0047 39.847H5.43504C3.96704 46.5046 3.9675 53.4235 5.43643 60.0806H14.0062C12.2069 53.4668 12.2062 46.4614 14.0047 39.847ZM40.8456 86.9163V95.4863C47.5027 96.9551 54.4212 96.9556 61.0781 95.4878V86.9154C54.4642 88.7145 47.4592 88.7146 40.8456 86.9163ZM76.7121 78.3401C77.1681 77.9258 77.6164 77.4986 78.0566 77.0584C78.3303 76.7847 78.599 76.5078 78.8627 76.2279C82.3852 72.4949 85.0663 68.1933 86.8527 63.4033H95.6279C94.8446 66.0209 93.827 68.5828 92.5754 71.0557C90.9717 74.2166 89.0085 77.1931 86.7197 79.9234C85.8487 80.9611 84.9254 81.9695 83.9498 82.9451C83.1256 83.7695 82.2779 84.5566 81.409 85.3063C78.5639 87.7577 75.4417 89.8508 72.1146 91.5442C69.6257 92.8081 67.0462 93.8344 64.4102 94.6233V85.8459C68.9777 84.1425 73.1048 81.6218 76.7121 78.3401ZM87.9159 60.0713C89.7128 53.4598 89.7121 46.4578 87.9144 39.8469H96.4932C97.9601 46.5011 97.9598 53.4168 96.4925 60.0713H87.9159ZM61.0703 13.0058C54.4577 11.2085 47.454 11.2086 40.8417 13.0068V4.43179C47.4971 2.96316 54.4142 2.96226 61.0703 4.42909V13.0058ZM80.9776 26.1371C80.0773 25.0045 79.1036 23.9114 78.0566 22.8644C77.384 22.1918 76.6923 21.5494 75.9834 20.9373C72.5515 17.9665 68.6712 15.6672 64.4071 14.077V5.29465C66.0633 5.79025 67.6973 6.3796 69.3005 7.0627C74.74 9.38755 79.7177 12.7465 83.9442 16.973C88.7025 21.7313 92.3614 27.4419 94.6859 33.6948C95.0309 34.6264 95.3452 35.567 95.6288 36.5148H86.8449C85.4336 32.7398 83.4691 29.2656 80.9776 26.1371ZM17.9777 82.9451C23.6196 88.587 30.3584 92.479 37.5136 94.6212V85.8504C32.3663 83.9308 27.7782 80.978 23.8632 77.063C19.9482 73.148 16.9954 68.5599 15.071 63.4126H6.30156C8.44385 70.5671 12.3359 77.3048 17.9777 82.9451ZM39.2382 58.0641C38.0296 58.0736 36.9442 57.3152 36.5318 56.1777L31.9391 43.5369C31.6452 43.6791 31.3324 43.7881 31.0148 43.8687C30.6404 43.9634 30.2612 44.0108 29.8773 44.0108C29.6545 44.0108 29.4365 44.0014 29.2232 43.9729C26.8296 43.6696 25.0143 41.6173 25.0001 39.2C24.9812 36.5268 27.1424 34.3371 29.8156 34.3181C32.4888 34.2992 34.6786 36.4605 34.6928 39.1337C34.6928 39.7498 34.5885 40.3423 34.3705 40.8969C34.252 41.2002 34.1051 41.4893 33.9345 41.7642L42.6698 45.9921L49.3528 36.3088C49.0732 36.1903 48.803 36.0434 48.547 35.868C48.0636 35.541 47.6417 35.1334 47.3005 34.6546C46.7222 33.8394 46.4094 32.8772 46.4047 31.8819C46.3857 29.2087 48.5472 27.019 51.2204 27C51.3389 27 51.462 27 51.5804 27.0095C53.974 27.1706 55.9078 29.0902 56.0832 31.4838C56.1638 32.6166 55.8652 33.702 55.2206 34.6262C54.8793 35.1097 54.4622 35.522 53.9835 35.849C53.7323 36.0244 53.4621 36.1714 53.1825 36.2898L59.984 45.8736L68.5771 41.5746C68.4159 41.2666 68.288 40.9442 68.1932 40.6077C68.0794 40.2001 68.0178 39.7735 68.0178 39.3422C68.0178 39.1479 68.0273 38.9536 68.0462 38.764C68.3211 36.3278 70.3781 34.4793 72.8286 34.4651C75.5018 34.4461 77.6916 36.6074 77.7058 39.2806C77.7247 41.8306 75.7435 43.9729 73.1983 44.1483L72.8949 44.1578C72.402 44.1578 71.9186 44.0914 71.4494 43.9492C71.146 43.8544 70.8521 43.7359 70.5772 43.5843L66.2641 55.9786C65.8707 57.1209 64.79 57.8887 63.5814 57.8982L39.2382 58.0594V58.0641ZM59.5899 42.1388C59.9596 42.6649 60.571 42.9729 61.2156 42.9729H61.2204C61.519 42.9729 61.8224 42.8971 62.0925 42.7644L64.3391 41.6411C65.2634 41.1766 65.6757 40.0627 65.2776 39.1053L64.2823 36.7212C63.9694 35.9771 63.2443 35.4984 62.4385 35.5032C62.0925 35.5079 61.7512 35.6027 61.4526 35.778L58.8126 37.3279C58.3339 37.6076 57.9927 38.0815 57.8789 38.6219C57.7651 39.1622 57.8789 39.731 58.2012 40.1812L59.5899 42.1388ZM41.4008 43.1055C41.1022 43.1055 40.7988 43.0392 40.5239 42.9065L38.3768 41.8685C37.4431 41.4135 37.0165 40.3091 37.4052 39.3469L38.3911 36.8918C38.6944 36.1429 39.4101 35.6547 40.2158 35.65C40.5618 35.65 40.9031 35.7353 41.2064 35.9106L43.7659 37.3705C44.2446 37.6406 44.5906 38.1099 44.7138 38.6502C44.8371 39.1905 44.7281 39.7593 44.4152 40.2143L43.0123 42.2476C42.6473 42.7785 42.0406 43.1008 41.396 43.1008L41.4008 43.1055ZM65.178 59.7218L37.6503 59.9044C36.4907 59.9121 35.5569 60.8583 35.5646 62.0179L35.5711 62.999C35.5788 64.1586 36.5251 65.0924 37.6847 65.0848L65.2123 64.9022C66.3719 64.8945 67.3058 63.9482 67.2981 62.7886L67.2916 61.8075C67.2839 60.6479 66.3376 59.7141 65.178 59.7218Z" />

        </g>
    </symbol>
    <symbol id="icon_dollar" viewBox="0 0 100 100">
        <g>
            <path d="M99.1109 50.065C99.1109 77.3877 76.878 99.6206 49.5554 99.6206C22.2327 99.6206 -0.00012207 77.3877 -0.00012207 50.065C-0.00012207 22.7424 22.2327 0.509521 49.5554 0.509521C76.878 0.509521 99.1109 22.7424 99.1109 50.065ZM3.57003 50.065C3.57003 75.4205 24.1999 96.0504 49.5554 96.0504C74.9108 96.0504 95.5407 75.4205 95.5407 50.065C95.5407 24.7096 74.9108 4.07968 49.5554 4.07968C24.1999 4.07968 3.57003 24.7096 3.57003 50.065Z" />
            <path d="M40.0118 41.3114C40.0118 43.1329 41.2505 44.715 43.02 45.1522L46.3819 45.9953V37.3457H43.9879C41.8021 37.3457 40.0223 39.1256 40.0223 41.3114H40.0118Z" />
            <path d="M52.7292 62.7843H55.1233C57.3091 62.7843 59.089 61.0045 59.089 58.8187C59.089 56.9971 57.8503 55.415 56.0808 54.9779L52.7189 54.1348V62.7843H52.7292Z" />
            <path d="M49.5562 9.74194C27.3234 9.74194 9.22278 27.8321 9.22278 50.0754C9.22278 72.3187 27.313 90.4089 49.5562 90.4089C71.7995 90.4089 89.8897 72.3187 89.8897 50.0754C89.8897 27.8321 71.7995 9.74194 49.5562 9.74194ZM65.4607 43.7053H59.1009V40.5203C59.1009 38.7716 57.675 37.3352 55.9159 37.3352H52.7309V47.5774L57.6334 48.8056C62.234 49.9609 65.4502 54.0723 65.4502 58.8187C65.4502 64.5122 60.8184 69.144 55.1249 69.144H52.7309V77.2003H46.3712V69.144H43.1862C37.9194 69.144 33.6415 64.8661 33.6415 59.5993V56.4143H40.0011V59.5993C40.0011 61.348 41.4271 62.7844 43.1862 62.7844H46.3712V52.5422L41.4687 51.314C36.8681 50.1587 33.6519 46.0473 33.6519 41.3009C33.6519 35.6074 38.2837 30.9756 43.9772 30.9756H46.3712V22.9193H52.7309V30.9756H55.9159C61.1827 30.9756 65.4607 35.2535 65.4607 40.5203V43.7053Z" />
        </g>
    </symbol>
    <symbol id="icon_m" viewBox="0 0 100 100">
        <g>
            <path d="M49.7325 99.3895C22.4098 99.3895 0.187378 77.1567 0.187378 49.8444C0.187378 22.5321 22.4202 0.299316 49.7325 0.299316C77.0447 0.299316 99.2776 22.5321 99.2776 49.8444C99.2776 77.1567 77.0447 99.3895 49.7325 99.3895ZM49.7325 3.59884C24.2313 3.59884 3.4869 24.3432 3.4869 49.8444C3.4869 75.3456 24.2313 96.09 49.7325 96.09C75.2336 96.09 95.9781 75.3456 95.9781 49.8444C95.9781 24.3432 75.2336 3.59884 49.7325 3.59884Z" />
            <path d="M82.0647 14.4911L66.7264 29.8293L69.7441 32.847L85.0823 17.5087L82.0647 14.4911Z" />
            <path d="M29.2638 67.2899L13.9255 82.6282L16.9431 85.6458L32.2814 70.3075L29.2638 67.2899Z" />
            <path d="M70.1932 67.2976L67.1757 70.3152L82.5139 85.6534L85.5315 82.6358L70.1932 67.2976Z" />
            <path d="M16.9393 14.0366L13.9218 17.0542L29.2527 32.3851L32.2703 29.3675L16.9393 14.0366Z" />
            <path d="M61.8166 51.1768C62.8158 50.1776 62.8158 48.5642 61.8166 47.5754L59.6932 45.4625C58.694 44.4632 57.0807 44.4632 56.0919 45.4625L54.9469 46.6074L53.625 45.2855C52.6258 44.2863 51.0124 44.2863 50.0236 45.2855L48.8787 46.4409L47.5568 45.1086C46.5575 44.1093 44.9442 44.1093 43.9554 45.1086L36.9295 52.1344C36.8775 52.1864 36.8775 52.2697 36.9295 52.3321C37.8663 53.2689 39.3964 53.2689 40.3436 52.3321L44.8713 47.8044C45.3605 47.3152 46.1516 47.3152 46.6408 47.8044L46.9739 48.1375C47.0363 48.2 47.0363 48.2936 46.9739 48.356L43.1956 52.1344C43.1435 52.1864 43.1435 52.2697 43.1956 52.3321C44.1323 53.2689 45.6624 53.2689 46.6096 52.3321L50.95 47.9918C51.4392 47.5026 52.2303 47.5026 52.7195 47.9918L53.0525 48.3248C53.1045 48.3769 53.1045 48.4602 53.0525 48.5226L49.4095 52.1656C49.3574 52.2177 49.3574 52.301 49.4095 52.3634C50.3463 53.3002 51.8764 53.3002 52.8235 52.3634L57.0182 48.1687C57.5074 47.6795 58.2985 47.6795 58.7877 48.1687L59.5059 48.8869C59.7869 49.1679 59.7869 49.6363 59.5059 49.9173L59.3914 50.0318C59.1104 50.3128 58.642 50.3128 58.3609 50.0318L57.4346 49.1055C57.3825 49.0535 57.2992 49.0535 57.2368 49.1055L55.6339 50.7084C55.5818 50.7604 55.5818 50.8437 55.6339 50.9062L57.0806 52.353C58.0799 53.3522 59.6932 53.3522 60.682 52.353L61.827 51.208L61.8166 51.1768Z" />
            <path d="M49.7336 11.853C28.7498 11.853 11.7421 28.8607 11.7421 49.8445C11.7421 70.8284 28.7498 87.8361 49.7336 87.8361C70.7174 87.8361 87.7251 70.8284 87.7251 49.8445C87.7251 28.8607 70.7174 11.853 49.7336 11.853ZM51.2845 23.5836C57.384 23.9375 62.9214 26.3731 67.2097 30.1827L61.7243 35.668C58.862 33.2428 55.2502 31.6711 51.2845 31.338V23.5836ZM48.1931 23.5836V31.338C44.2274 31.6607 40.6157 33.2428 37.7533 35.668L32.2679 30.1827C36.5563 26.3731 42.0937 23.9375 48.1931 23.5836ZM30.0821 32.3685L35.5674 37.8538C33.1422 40.7162 31.5706 44.328 31.2375 48.2937H23.483C23.8369 42.1942 26.2726 36.6568 30.0821 32.3685ZM23.483 51.3851H31.2375C31.5602 55.3508 33.1422 58.9625 35.5674 61.8249L30.0821 67.3103C26.2726 63.0219 23.8369 57.4845 23.483 51.3851ZM48.1931 76.0952C42.0937 75.7413 36.5563 73.3056 32.2679 69.4961L37.7533 64.0107C40.6157 66.436 44.2274 68.0076 48.1931 68.3407V76.0952ZM33.7668 49.8341C33.7668 41.018 40.9175 33.8673 49.7336 33.8673C58.5497 33.8673 65.7005 41.018 65.7005 49.8341C65.7005 58.6502 58.5497 65.801 49.7336 65.801C40.9175 65.801 33.7668 58.6502 33.7668 49.8341ZM51.2845 76.0952V68.3407C55.2502 68.018 58.862 66.436 61.7243 64.0107L67.2097 69.4961C62.9214 73.3056 57.384 75.7413 51.2845 76.0952ZM69.3955 67.3103L63.9102 61.8249C66.3354 58.9625 67.9071 55.3508 68.2402 51.3851H75.9946C75.6407 57.4845 73.2051 63.0219 69.3955 67.3103ZM68.2402 48.2937C67.9175 44.328 66.3354 40.7162 63.9102 37.8538L69.3955 32.3685C73.2051 36.6568 75.6407 42.1942 75.9946 48.2937H68.2402Z" />
        </g>
    </symbol>
    <symbol id="icon_shield" viewBox="0 0 100 100">
        <g>
            <path d="M49.7325 100C37.0339 100 24.3458 95.1705 14.6762 85.5009C-4.65264 66.1721 -4.65264 34.7276 14.6762 15.3987C24.044 6.03095 36.4927 0.878662 49.7325 0.878662C62.9722 0.878662 75.421 6.03095 84.7888 15.3987C104.118 34.7276 104.118 66.1721 84.7888 85.5009C75.1296 95.1601 62.431 100 49.7325 100ZM17.2784 82.8988C35.1708 100.791 64.2838 100.791 82.1762 82.8988C100.069 65.0063 100.069 35.8933 82.1762 18.0009C73.5058 9.33049 61.9835 4.56336 49.7221 4.56336C37.4607 4.56336 25.9383 9.3409 17.2679 18.0009C-0.624513 35.8933 -0.624513 65.0063 17.2679 82.8988H17.2784Z" />
            <path d="M49.0769 68.9929C49.2538 69.4196 49.6701 69.6693 50.1073 69.6693C50.253 69.6693 50.3987 69.6382 50.5445 69.5861C54.0418 68.1185 57.2268 65.8493 59.7457 63.0182C60.1517 62.5602 60.11 61.8525 59.652 61.4466C59.194 61.0407 58.4862 61.0823 58.0803 61.5403C55.78 64.132 52.876 66.2033 49.6805 67.5356C49.1185 67.775 48.8478 68.4308 49.0872 68.9929H49.0769Z" />
            <path d="M68.6225 33.312L50.1368 25.9218C49.8661 25.8177 49.5747 25.8177 49.3041 25.9218L30.8183 33.312C30.3916 33.4785 30.121 33.8844 30.121 34.3424V47.5822C30.1418 59.8019 37.865 70.8455 49.3353 75.0506C49.4602 75.0922 49.5851 75.1131 49.7204 75.1131C49.8558 75.1131 49.9807 75.0922 50.1056 75.0506C61.5759 70.8351 69.299 59.8019 69.3199 47.5822V34.3424C69.3199 33.8844 69.0493 33.4785 68.6225 33.312ZM67.0925 47.5822C67.0716 58.6986 60.0978 68.8262 49.7308 72.8127C39.3638 68.8262 32.3796 58.6986 32.3588 47.5822V35.1022L49.7308 28.1597L67.0925 35.1022V47.5822Z" />
            <path d="M42.0083 35.0502C41.7376 34.9357 41.4358 34.9357 41.1548 35.0502L36.7519 36.8094C36.3252 36.9759 36.0546 37.3818 36.0546 37.8398V42.5341C36.0546 43.1482 36.5542 43.6478 37.1683 43.6478C37.7824 43.6478 38.282 43.1482 38.282 42.5341V38.5996L41.9771 37.1217C42.2581 37.0072 42.4663 36.7989 42.5912 36.5179C42.7056 36.2473 42.7056 35.9455 42.5912 35.6644C42.4767 35.3834 42.2685 35.1751 41.9979 35.0502H42.0083Z" />
            <path d="M77.8876 22.2998C70.3726 14.7743 60.3698 10.6421 49.7322 10.6421C39.0946 10.6421 29.1023 14.7847 21.5768 22.2998C6.05756 37.819 6.05756 63.0808 21.5768 78.6105C29.3417 86.3754 39.5317 90.2473 49.7322 90.2473C59.9326 90.2473 70.1227 86.365 77.8876 78.6105C93.4069 63.0913 93.4069 37.8295 77.8876 22.2998ZM72.3814 47.5823C72.4126 61.7068 63.3883 74.0619 49.9299 78.3399C49.805 78.3815 49.6697 78.3815 49.5344 78.3399C36.076 74.0619 27.0518 61.7068 27.083 47.5823V31.959C27.083 31.6987 27.2391 31.4594 27.4889 31.3553L49.4928 22.56C49.5657 22.5288 49.6489 22.5184 49.7322 22.5184C49.8154 22.5184 49.8988 22.5288 49.9716 22.56L71.9755 31.3657C72.2253 31.4594 72.3814 31.6987 72.3814 31.9694V47.5927V47.5823Z" />
        </g>
    </symbol>
    <symbol id="icon_soccer" viewBox="0 0 100 100">
        <g>
            <path d="M49.8769 99.9324C22.5542 99.9324 0.331787 77.6996 0.331787 50.3874C0.331787 23.0751 22.5646 0.842285 49.8769 0.842285C77.1891 0.842285 99.422 23.0751 99.422 50.3874C99.422 77.6996 77.1891 99.9324 49.8769 99.9324ZM49.8769 4.14181C24.3757 4.14181 3.63131 24.8862 3.63131 50.3874C3.63131 75.8885 24.3757 96.6329 49.8769 96.6329C75.378 96.6329 96.1224 75.8885 96.1224 50.3874C96.1224 24.8862 75.378 4.14181 49.8769 4.14181Z" />
            <path d="M65.9512 19.4529C65.7014 19.4529 65.4516 19.4009 65.2226 19.2864C60.4242 16.9132 55.2615 15.7058 49.8803 15.7058C44.499 15.7058 39.3363 16.9132 34.538 19.2864C33.903 19.5986 33.1432 19.4737 32.6436 18.9741L24.1293 10.4599C23.765 10.0956 23.5985 9.59593 23.6609 9.08591C23.7234 8.57588 24.0148 8.12833 24.452 7.86811C32.1232 3.2675 40.9185 0.842285 49.8907 0.842285C58.8629 0.842285 67.6582 3.27791 75.3294 7.86811C75.7666 8.12833 76.058 8.57588 76.1205 9.08591C76.1829 9.59593 76.006 10.0956 75.6521 10.4599L67.1378 18.9741C66.8151 19.2864 66.3988 19.4529 65.9616 19.4529H65.9512ZM49.8803 12.4063C55.3656 12.4063 60.6532 13.5512 65.6077 15.8099L71.7697 9.64795C65.0665 6.03615 57.541 4.1418 49.8803 4.1418C42.2195 4.1418 34.6941 6.03615 27.991 9.64795L34.1528 15.8099C39.1074 13.5512 44.3949 12.4063 49.8803 12.4063Z" />
            <path d="M49.8785 99.9324C40.9062 99.9324 32.1109 97.4968 24.4398 92.9066C24.0026 92.6464 23.7112 92.1988 23.6487 91.6888C23.5863 91.1788 23.7632 90.6792 24.1171 90.3149L32.6314 81.8006C33.131 81.301 33.9012 81.1761 34.5258 81.4884C39.3241 83.8615 44.4868 85.0689 49.8681 85.0689C55.2493 85.0689 60.4121 83.8615 65.2105 81.4884C65.8454 81.1761 66.6052 81.301 67.1048 81.8006L75.6191 90.3149C75.9834 90.6792 76.1499 91.1788 76.0874 91.6888C76.025 92.1988 75.7335 92.6464 75.2964 92.9066C67.6252 97.5072 58.83 99.9324 49.8577 99.9324H49.8785ZM27.9892 91.1268C34.6923 94.7386 42.2177 96.6329 49.8785 96.6329C57.5392 96.6329 65.0647 94.7386 71.7679 91.1268L65.6059 84.9649C60.6514 87.2235 55.3638 88.3685 49.8785 88.3685C44.3931 88.3685 39.1056 87.2235 34.1511 84.9649L27.9892 91.1268Z" />
            <path d="M90.9825 76.6275C90.5453 76.6275 90.129 76.4609 89.8167 76.1487L81.3024 67.6344C80.8028 67.1348 80.6779 66.3646 80.9902 65.7401C83.3634 60.9417 84.5708 55.779 84.5708 50.3977C84.5708 45.0165 83.3634 39.8538 80.9902 35.0554C80.6779 34.4205 80.8028 33.6502 81.3024 33.161L89.8167 24.6468C90.181 24.2825 90.6806 24.1159 91.1906 24.1784C91.7007 24.2408 92.1482 24.5323 92.4084 24.9694C97.0091 32.6406 99.4343 41.4359 99.4343 50.4082C99.4343 59.3804 97.0091 68.1757 92.4084 75.8469C92.1482 76.284 91.7007 76.5755 91.1906 76.6379C91.1178 76.6379 91.0553 76.6379 90.9825 76.6379V76.6275ZM84.4563 66.1147L90.6182 72.2767C94.23 65.5735 96.1243 58.0481 96.1243 50.3873C96.1243 42.7266 94.23 35.2012 90.6182 28.498L84.4563 34.6599C86.715 39.6144 87.8599 44.902 87.8599 50.3873C87.8599 55.8727 86.715 61.1602 84.4563 66.1147Z" />
            <path d="M8.77293 76.6276C8.70007 76.6276 8.63762 76.6276 8.57516 76.6172C8.06514 76.5547 7.61759 76.2633 7.35737 75.8261C2.75675 68.1549 0.331543 59.3596 0.331543 50.3874C0.331543 41.4152 2.75675 32.6199 7.35737 24.9487C7.61759 24.5115 8.06514 24.2201 8.57516 24.1576C9.08519 24.0952 9.58481 24.2721 9.94911 24.626L18.4634 33.1403C18.963 33.6399 19.0879 34.4101 18.7756 35.0347C16.4024 39.833 15.195 44.9957 15.195 50.377C15.195 55.7582 16.4024 60.9209 18.7756 65.7193C19.0879 66.3542 18.963 67.1245 18.4634 67.6137L9.94911 76.1279C9.63685 76.4402 9.22051 76.6172 8.78335 76.6172L8.77293 76.6276ZM9.13721 28.4981C5.52541 35.2012 3.63106 42.7266 3.63106 50.3874C3.63106 58.0481 5.52541 65.5736 9.13721 72.2768L15.2992 66.1148C13.0405 61.1603 11.8955 55.8727 11.8955 50.3874C11.8955 44.902 13.0405 39.6145 15.2992 34.66L9.13721 28.4981Z" />
            <path d="M49.878 12.3958C28.9358 12.3958 11.8865 29.4347 11.8865 50.3873C11.8865 71.3399 28.9254 88.3788 49.878 88.3788C70.8306 88.3788 87.8695 71.3399 87.8695 50.3873C87.8695 29.4347 70.8306 12.3958 49.878 12.3958ZM71.2574 37.9073C73.0581 40.9883 74.151 44.3503 74.5049 47.9204C74.5153 48.0662 74.4528 48.2015 74.3279 48.2743C71.6112 49.9397 69.1756 51.9798 67.0731 54.3634C66.9794 54.4779 66.8233 54.5195 66.688 54.4674L61.9937 52.9374C61.8583 52.8958 61.7647 52.7813 61.7439 52.6356C61.213 48.7532 60.0056 45.0372 58.1529 41.5815C58.0904 41.4566 58.1009 41.3109 58.1841 41.1964L61.0881 37.1995C61.161 37.1059 61.2754 37.0434 61.3899 37.0434C61.4212 37.0434 61.442 37.0434 61.4732 37.0434C64.575 37.7304 67.7601 37.9594 70.9243 37.6991C71.07 37.6887 71.2053 37.7616 71.2781 37.8865L71.2574 37.9073ZM59.1833 53.2913C59.1937 53.3953 59.1625 53.4995 59.1 53.5723C56.6332 56.4139 53.4898 58.6934 50.0237 60.1506C49.93 60.1922 49.8364 60.1922 49.7427 60.1506C46.2766 58.683 43.1332 56.4035 40.6664 53.5723C40.6039 53.4995 40.5727 53.3953 40.5831 53.2913C41.0619 49.5233 42.2381 45.922 44.0596 42.5912C44.1116 42.4975 44.1949 42.4351 44.299 42.4143C46.1309 42.0292 48.0044 41.8314 49.8884 41.8314C51.7724 41.8314 53.6459 42.0292 55.4778 42.4143C55.5819 42.4351 55.6652 42.4975 55.7172 42.5912C57.5387 45.922 58.7045 49.5233 59.1937 53.2913H59.1833ZM58.6213 27.4571C58.6213 27.4571 58.7462 27.353 58.8711 27.353C58.9127 27.353 58.9648 27.353 59.0168 27.3842C62.8472 28.9039 66.2716 31.4019 68.9362 34.5974C69.0715 34.7535 69.0195 34.9201 68.9882 34.9825C68.9674 35.0345 68.8738 35.2011 68.6552 35.2011C66.2924 35.2323 63.9401 34.9617 61.6606 34.4205C61.5669 34.3996 61.4837 34.3372 61.4316 34.2539C60.2138 32.245 59.2354 30.08 58.5276 27.8318C58.4651 27.634 58.5796 27.4987 58.6317 27.4571H58.6213ZM44.6216 26.208C48.0669 25.469 51.6995 25.469 55.1448 26.208C55.2801 26.2393 55.3946 26.3434 55.4258 26.4787C56.1648 29.57 57.3618 32.5261 58.9751 35.2636C59.048 35.3885 59.0376 35.5445 58.9544 35.6694L56.0711 39.6456C55.9879 39.76 55.8422 39.8225 55.7069 39.7913C51.8973 39.021 47.8692 39.021 44.0596 39.7913C43.9243 39.8225 43.7785 39.76 43.6953 39.6456L40.8121 35.6694C40.7288 35.555 40.7184 35.3885 40.7913 35.2636C42.4046 32.5261 43.6016 29.57 44.3406 26.4787C44.3718 26.3434 44.4863 26.2393 44.6216 26.208ZM30.8302 34.5974C33.4948 31.3915 36.9193 28.8935 40.7497 27.3842C40.8017 27.3634 40.8537 27.353 40.8953 27.353C41.0306 27.353 41.1139 27.4259 41.1451 27.4571C41.1972 27.5091 41.3117 27.634 41.2493 27.8318C40.5415 30.0905 39.563 32.245 38.3452 34.2539C38.2932 34.3372 38.2099 34.3996 38.1162 34.4205C35.8368 34.9617 33.4844 35.2323 31.1217 35.2011C30.9031 35.2011 30.8094 35.0345 30.7886 34.9825C30.7574 34.9201 30.7053 34.7535 30.8406 34.5974H30.8302ZM28.5091 37.9073C28.5716 37.7928 28.6965 37.72 28.8318 37.72C28.8318 37.72 28.8525 37.72 28.863 37.72C32.0376 37.9698 35.2227 37.7512 38.314 37.0642C38.4597 37.033 38.6054 37.0851 38.6887 37.21L41.5928 41.2068C41.676 41.3213 41.6864 41.4775 41.624 41.592C39.7712 45.0476 38.5638 48.7635 38.033 52.6459C38.0121 52.7812 37.9185 52.8958 37.7832 52.9478L33.0889 54.4779C32.9535 54.5195 32.7974 54.4779 32.7037 54.3738C30.6012 51.9902 28.1656 49.9501 25.449 48.2847C25.3345 48.2118 25.2616 48.0766 25.272 47.9308C25.6259 44.3607 26.7188 40.9883 28.5195 37.9177L28.5091 37.9073ZM29.6436 63.5542C29.5812 63.752 29.4042 63.7936 29.3314 63.804C29.2585 63.804 29.0919 63.804 28.9774 63.6374C26.7604 60.1506 25.449 56.112 25.1887 51.9694C25.1783 51.7612 25.3136 51.6571 25.3761 51.6259C25.4385 51.5947 25.6051 51.5218 25.7716 51.6467C27.6972 53.0103 29.4459 54.6132 30.9759 56.3931C31.0384 56.4659 31.0696 56.5596 31.0592 56.6637C30.8718 59.0056 30.393 61.3268 29.6332 63.5646L29.6436 63.5542ZM39.9273 73.0573C36.6798 71.6313 33.8175 69.5392 31.4235 66.8537C31.3298 66.7497 31.2986 66.5935 31.3506 66.4686C32.5684 63.5334 33.3387 60.442 33.6405 57.2778C33.651 57.1321 33.755 57.0072 33.8903 56.9655L38.5326 55.4563C38.5326 55.4563 38.6055 55.4354 38.6471 55.4354C38.7512 55.4354 38.8449 55.4771 38.9177 55.5604C41.5199 58.4748 44.7778 60.8479 48.348 62.4197C48.4833 62.4821 48.5665 62.607 48.5665 62.7527V67.6344C48.5665 67.7801 48.4833 67.9154 48.348 67.9675C45.4335 69.2269 42.7272 70.9235 40.302 72.9949C40.198 73.0885 40.0418 73.1093 39.9169 73.0469L39.9273 73.0573ZM56.3001 74.0878C56.2897 74.1606 56.2377 74.3271 56.0295 74.3792C52.0118 75.3992 47.765 75.3992 43.7473 74.3792C43.5495 74.3271 43.4871 74.1606 43.4767 74.0878C43.4663 74.0149 43.4454 73.8484 43.6224 73.7131C45.5168 72.3079 47.5777 71.1317 49.7531 70.2261C49.8468 70.1845 49.9405 70.1845 50.0341 70.2261C52.1991 71.1317 54.2601 72.3079 56.1648 73.7131C56.3314 73.838 56.3209 74.0149 56.3105 74.0878H56.3001ZM68.3637 66.8642C65.9698 69.5496 63.1074 71.6313 59.8599 73.0573C59.7246 73.1198 59.5789 73.0885 59.4748 73.0052C57.0496 70.9339 54.3537 69.2373 51.4289 67.9779C51.2936 67.9154 51.2103 67.7905 51.2103 67.6448V62.7632C51.2103 62.6174 51.2936 62.4821 51.4289 62.4301C54.999 60.8584 58.2673 58.4852 60.8591 55.5708C60.9319 55.4875 61.0256 55.4459 61.1297 55.4459C61.1714 55.4459 61.2026 55.4459 61.2442 55.4667L65.8865 56.976C66.0218 57.0176 66.1259 57.1425 66.1363 57.2882C66.4381 60.4524 67.2084 63.5334 68.4262 66.479C68.4782 66.6039 68.4574 66.7601 68.3533 66.8642H68.3637ZM70.7994 63.6479C70.6849 63.8248 70.5079 63.8248 70.4455 63.8144C70.3726 63.8144 70.2061 63.7624 70.1332 63.5646C69.3838 61.3268 68.905 59.0056 68.7072 56.6637C68.7072 56.57 68.728 56.4659 68.7905 56.3931C70.3205 54.6132 72.0692 53.0207 73.9948 51.6467C74.0676 51.5947 74.1405 51.5739 74.203 51.5739C74.2862 51.5739 74.3487 51.6051 74.3903 51.6259C74.4528 51.6571 74.5985 51.7612 74.5777 51.9694C74.3175 56.112 73.006 60.1506 70.789 63.6374L70.7994 63.6479Z" />
        </g>
    </symbol>
    <symbol id="icon_timer" viewBox="0 0 100 100">
        <g>
            <path d="M49.6153 99.4071C36.9167 99.4071 24.2286 94.5775 14.559 84.9078C-4.76983 65.579 -4.76983 34.1345 14.559 14.8057C23.9268 5.43793 36.3755 0.285645 49.6153 0.285645C62.8551 0.285645 75.3038 5.43793 84.6716 14.8057C104 34.1345 104 65.579 84.6716 84.9078C75.0124 94.5671 62.3138 99.4071 49.6153 99.4071ZM17.1612 82.3057C35.0536 100.198 64.1665 100.198 82.059 82.3057C99.9514 64.4132 99.9514 35.3003 82.059 17.4079C73.3886 8.73747 61.8662 3.97028 49.6049 3.97028C37.3435 3.97028 25.8211 8.74788 17.1507 17.4079C-0.7417 35.3003 -0.7417 64.4132 17.1507 82.3057H17.1612Z" />
            <path d="M51.4497 39.4224L42.2693 52.2874H47.7754V61.4678L56.9559 48.6131H51.4497V39.4224Z" />
            <path d="M49.6055 32.2715C39.5508 32.2715 31.3904 40.4319 31.3904 50.4866C31.3904 60.5413 39.5508 68.6809 49.6055 68.6809C59.6602 68.6809 67.8206 60.5205 67.8206 50.4866C67.8206 40.4527 59.6602 32.2715 49.6055 32.2715ZM49.6055 66.4326C40.779 66.4326 33.6178 59.2715 33.6178 50.445C33.6178 41.6185 40.779 34.4573 49.6055 34.4573C58.432 34.4573 65.5932 41.6185 65.5932 50.445C65.5932 59.2715 58.432 66.4326 49.6055 66.4326Z" />
            <path d="M77.7625 21.7068C70.2474 14.1813 60.2447 10.0491 49.6071 10.0491C38.9694 10.0491 28.9772 14.1917 21.4517 21.7068C5.93244 37.226 5.93244 62.4878 21.4517 78.0175C29.2166 85.7823 39.4066 89.6647 49.6071 89.6647C59.8075 89.6647 69.9976 85.7823 77.7625 78.0175C93.2817 62.4982 93.2817 37.2364 77.7625 21.7068ZM49.6071 75.1968C35.9926 75.1968 24.9074 64.1115 24.9074 50.497C24.9074 44.4808 27.062 38.9643 30.6426 34.6551L27.624 31.6366C26.7601 30.7727 26.7601 29.3675 27.624 28.4932C28.4879 27.6189 29.8931 27.6293 30.7675 28.4932L33.786 31.5117C37.5331 28.3787 42.2481 26.3178 47.39 25.8806V23.8405H45.35C43.5493 23.8405 42.0608 22.3521 42.0608 20.5514V18.834C42.0608 17.0125 43.5493 15.5449 45.35 15.5449H53.8851C55.6857 15.5449 57.1742 17.0125 57.1742 18.834V20.5514C57.1742 22.3521 55.6857 23.8405 53.8851 23.8405H51.8449V25.8806C56.9972 26.3282 61.7019 28.3891 65.449 31.5117L68.4675 28.4932C69.3314 27.6293 70.7366 27.6293 71.6109 28.4932C72.4748 29.3571 72.4748 30.7622 71.6109 31.6366L68.5924 34.6551C72.173 38.9643 74.3276 44.4704 74.3276 50.497C74.3276 64.1115 63.2424 75.1968 49.6279 75.1968H49.6071Z" />
        </g>
    </symbol>
    <symbol id="icon_world" viewBox="0 0 100 101">
        <g>
            <path d="M0.546753 50.4613C0.546753 23.1386 22.7796 0.905762 50.1023 0.905762C77.425 0.905762 99.6578 23.1386 99.6578 50.4613C99.6578 77.7839 77.425 100.017 50.1023 100.017C22.7796 100.017 0.546753 77.7839 0.546753 50.4613ZM96.0877 50.4613C96.0877 25.1058 75.4577 4.47592 50.1023 4.47592C24.7469 4.47592 4.11697 25.1058 4.11697 50.4613C4.11697 75.8167 24.7469 96.4466 50.1023 96.4466C75.4577 96.4466 96.0877 75.8167 96.0877 50.4613Z" />
            <path d="M98.1434 49.2644H76.4414V53.5423H98.1434V49.2644Z" />
            <path d="M23.4207 49.2644H1.71863V53.5423H23.4207V49.2644Z" />
            <path d="M52.4107 78.2419H48.1328V99.944H52.4107V78.2419Z" />
            <path d="M52.4107 2.86255H48.1328V24.5645H52.4107V2.86255Z" />
            <path d="M75.7859 24.2522C60.9432 9.40944 36.868 9.40944 22.0148 24.2522C7.17213 39.0949 7.17213 63.1701 22.0148 78.0232C36.8576 92.8659 60.9328 92.8659 75.7859 78.0232C90.6286 63.1805 90.6286 39.1053 75.7859 24.2522ZM56.2489 27.4684C60.5789 28.8112 64.4613 31.3196 67.4798 34.7337L68.0626 35.3894L67.2092 35.5872C64.9505 36.118 62.5357 36.5552 60.0376 36.8778L59.5901 36.9403L59.4652 36.5031C59.0488 35.0772 58.5596 33.7032 57.9975 32.4333C57.3001 30.8408 56.5195 29.446 55.666 28.2699L54.7292 26.9896L56.2489 27.458V27.4684ZM38.8768 49.9511L38.8977 49.4098C39.0018 46.1207 39.3661 42.9773 39.9906 40.0837L40.0843 39.6257L40.5526 39.6673C46.0276 40.1461 51.8773 40.1253 57.321 39.6153L57.7893 39.5737L57.8934 40.0317C58.5284 42.9565 58.8927 46.1103 58.9863 49.4098V49.9511H38.8873H38.8768ZM58.9863 52.3659V52.9072C58.8718 56.2067 58.5075 59.3605 57.8726 62.2853L57.7685 62.7433L57.3001 62.7017C51.8564 62.1916 46.0068 62.1812 40.5319 62.6496L40.0634 62.6912L39.9697 62.2333C39.3452 59.3396 38.9809 56.2067 38.8768 52.9072L38.856 52.3659H58.9655H58.9863ZM48.9316 26.5629C51.9605 26.5629 55.0415 30.4036 56.9671 36.5968L57.1648 37.2213L56.5091 37.2734C53.9486 37.4919 51.3048 37.6064 48.6506 37.6064C46.1837 37.6064 43.7273 37.5127 41.3333 37.315L40.6775 37.2629L40.8753 36.628C42.8009 30.4141 45.8923 26.5525 48.9316 26.5525V26.5629ZM30.2793 34.8481C33.3186 31.3821 37.2323 28.832 41.6143 27.4789L43.1444 27.0105L42.1972 28.3011C41.3437 29.4669 40.5527 30.872 39.8657 32.4542C39.314 33.7032 38.8144 35.0979 38.3773 36.5968L38.2524 37.0236L37.8048 36.9715C35.2859 36.6593 32.8503 36.2429 30.5604 35.7121L29.6964 35.5143L30.2793 34.8481ZM24.2007 49.389C24.4921 45.3297 25.7932 41.3744 27.9686 37.9291L28.1768 37.6064L28.5515 37.7001C31.2161 38.3767 34.0889 38.9179 37.1074 39.3031L37.6695 39.3759L37.5549 39.938C36.9304 42.9565 36.5766 46.1519 36.4829 49.4411V49.9511H24.1694L24.2111 49.389H24.2007ZM28.1768 64.7105L27.9686 64.3878C25.7932 60.953 24.4921 56.9873 24.2007 52.9279L24.159 52.3659H36.462V52.8759C36.5661 56.165 36.9305 59.3709 37.5446 62.379L37.6591 62.941L37.097 63.0139C34.0889 63.399 31.2057 63.9403 28.5411 64.6169L28.1664 64.7105H28.1768ZM41.6143 74.8485C37.2323 73.4954 33.3186 70.9453 30.2793 67.4792L29.6964 66.8131L30.5604 66.6153C32.8503 66.0949 35.2859 65.6681 37.8048 65.3558L38.2524 65.3038L38.3773 65.7306C38.8144 67.2294 39.314 68.6242 39.8657 69.8732C40.5631 71.4657 41.3437 72.8605 42.1972 74.0367L43.1444 75.3273L41.6143 74.8589V74.8485ZM48.9316 75.7541C45.8923 75.7541 42.8009 71.8925 40.8753 65.6785L40.6775 65.0436L41.3333 64.9916C46.2982 64.596 51.5858 64.6064 56.5091 65.0332L57.1648 65.0852L56.9671 65.7098C55.0311 71.8925 51.9501 75.7437 48.9316 75.7437V75.7541ZM67.4798 67.5833C64.4613 70.9973 60.5684 73.5058 56.2489 74.8485L54.7292 75.3169L55.666 74.0367C56.5195 72.8709 57.3001 71.4657 57.9975 69.8732C58.5492 68.593 59.0488 67.2294 59.4652 65.8034L59.5901 65.3663L60.0376 65.4287C62.5357 65.7514 64.9505 66.1885 67.2092 66.7194L68.0626 66.9276L67.4798 67.5833ZM73.6521 52.9279C73.3607 57.0289 72.0388 61.0363 69.8113 64.5127L69.6032 64.8354L69.2285 64.7418C66.5951 64.0444 63.7327 63.4927 60.735 63.0868L60.1729 63.0139L60.2874 62.4623C60.9119 59.4438 61.2762 56.2275 61.3699 52.8863V52.3763H73.6833L73.6417 52.9383L73.6521 52.9279ZM61.3907 49.9511V49.4411C61.2866 46.0999 60.9224 42.8732 60.2978 39.8651L60.1834 39.3135L60.7454 39.2406C63.7431 38.8347 66.595 38.283 69.2388 37.5856L69.6136 37.492L69.8217 37.8146C72.0491 41.2911 73.3815 45.288 73.6625 49.3994L73.7042 49.9615H61.4011L61.3907 49.9511Z" />
        </g>
    </symbol>
    <symbol id="icon_lang" viewBox="0 0 16 16">
        <g>
            <path d="M14.1692 3.71888C12.7989 1.84023 11.0012 0.775068 8.6355 0.5C9.74223 1.7817 10.5035 3.16875 10.9895 4.71966C12.0962 4.49141 13.1444 4.19294 14.1692 3.71888Z" />
            <path d="M4.25006 5.52288C3.83001 5.41303 3.42197 5.30631 3.01989 5.18202C2.66058 5.06606 2.30606 4.93336 1.95173 4.80073C1.7517 4.72586 1.55173 4.65102 1.35101 4.57922C0.162292 6.66856 0.273551 9.63579 1.34515 11.3857C1.94399 11.1975 2.53794 11.0093 3.13731 10.8194L3.1384 10.8191C3.67559 10.6489 4.21745 10.4772 4.77076 10.303C4.45455 8.78132 4.4604 7.21285 4.77661 5.66193C4.59874 5.61407 4.42337 5.5682 4.25006 5.52288Z" />
            <path d="M12.9458 5.15847C12.3749 5.33989 11.8035 5.52147 11.2297 5.70289C11.5459 7.23625 11.5342 8.79301 11.2297 10.2971C12.3891 10.6658 13.5193 11.0228 14.6612 11.3798C15.7855 9.45435 15.7737 6.52809 14.6612 4.61432C14.0874 4.7957 13.5166 4.97709 12.9458 5.15847Z" />
            <path d="M5.7194 10.2269C5.39148 8.74034 5.40319 7.28307 5.70183 5.82579C5.94061 5.83983 6.17518 5.8565 6.40679 5.87296C6.9476 5.91139 7.47255 5.94869 7.99728 5.94869C8.52199 5.94869 9.0467 5.91141 9.58748 5.87298C9.81907 5.85652 10.054 5.83983 10.2927 5.82579C10.6148 7.25966 10.6031 8.72864 10.2869 10.221C8.75267 10.022 7.2536 10.0103 5.7194 10.2269Z" />
            <path d="M14.1693 12.2753C12.8107 14.1539 11.0072 15.2132 8.64145 15.5C9.73062 14.2242 10.5094 12.843 10.9837 11.2862C12.0846 11.4969 13.1269 11.8129 14.1693 12.2753Z" />
            <path d="M7.35894 0.5C4.99322 0.780921 3.18965 1.84608 1.78428 3.78326C2.88515 4.12271 3.92162 4.44459 4.99322 4.77819C5.49096 3.15704 6.26391 1.7817 7.35894 0.5Z" />
            <path d="M7.35894 15.5C4.99907 15.2191 3.20136 14.1598 1.78428 12.2167C2.13525 12.1085 2.47968 12.0021 2.82079 11.8967L2.82228 11.8962C3.55057 11.6711 4.26377 11.4508 4.99322 11.2277C5.49096 12.8312 6.2522 14.2183 7.35894 15.5Z" />
            <path d="M10.0408 4.86013C9.60158 3.48479 8.92817 2.28503 7.99711 1.19646C7.06019 2.30258 6.38093 3.4965 5.95931 4.86013C7.33541 5.04156 8.67052 5.04741 10.0408 4.86013Z" />
            <path d="M8.00297 14.8035C7.07191 13.7208 6.39849 12.521 5.95931 11.1457C7.3237 10.9526 8.65881 10.9584 10.0466 11.1399C9.60744 12.5093 8.93403 13.7033 8.00297 14.8035Z" />
        </g>
    </symbol>
    <symbol id="soc_bg" viewBox="0 0 32 32">
        <g>
            <path fill-rule="evenodd" clip-rule="evenodd" d="M0 16C0 24.8202 7.17648 32 16 32C24.8202 32 32 24.8202 32 16C32 7.17982 24.8202 0 16 0C7.17984 0 0 7.17982 0 16ZM5.94191 4.96936C8.59784 2.54552 12.1292 1.06554 16 1.06554C19.8696 1.06554 23.4 2.54462 26.0557 4.96715L24.8681 6.1547C22.5199 4.03823 19.4105 2.75 16 2.75C12.5883 2.75 9.47794 4.03912 7.12944 6.15689L5.94191 4.96936ZM4.96751 5.94395C2.54476 8.59964 1.06554 12.1302 1.06554 16C1.06554 19.8694 2.54451 23.3997 4.96688 26.0553L6.15441 24.8678C4.03812 22.5196 2.75 19.4104 2.75 16C2.75 12.5893 4.03837 9.47974 6.15505 7.13149L4.96751 5.94395ZM5.94122 27.03C8.59723 29.4542 12.1289 30.9344 16 30.9344C19.8692 30.9344 23.3992 29.4557 26.0548 27.0337L24.8672 25.8461C22.5191 27.9621 19.4101 29.25 16 29.25C12.5879 29.25 9.47731 27.9606 7.12874 25.8425L5.94122 27.03ZM30.9345 16C30.9345 19.8714 29.454 23.4033 27.0295 26.0593L25.842 24.8718C27.9604 22.5232 29.25 19.4123 29.25 16C29.25 12.5881 27.9607 9.47761 25.8428 7.12907L27.0303 5.94154C29.4543 8.5975 30.9345 12.129 30.9345 16Z"/>
        </g>
    </symbol>
    <symbol id="soc_facebook" viewBox="0 0 8 14">
        <g>
            <path d="M6.07324 2.54685H7.32657V0.426849C6.71974 0.363747 6.11001 0.332593 5.4999 0.333516C3.68657 0.333516 2.44657 1.44018 2.44657 3.46685V5.21352H0.399902V7.58685H2.44657V13.6668H4.8999V7.58685H6.9399L7.24657 5.21352H4.8999V3.70018C4.8999 3.00018 5.08657 2.54685 6.07324 2.54685Z" />
        </g>
    </symbol>
    <symbol id="soc_facebook" viewBox="0 0 8 14">
        <g>

        </g>
    </symbol>



</svg>